<?xml version="1.0" encoding="UTF-8"?>
<svg id="Layer_1" data-name="Layer 1" xmlns="http://www.w3.org/2000/svg" viewBox="0 0 718.62 682.62">
  <defs>
    <style>
      .cls-1 {
        fill: #d4a13b;
      }
    </style>
  </defs>
  <path class="cls-1" d="M506.89,283.38c-.92-7.23-.99-14.45.25-21.68,1.68-9.76,6-18.49,10.43-27.13,4.12-8.04,5.21-16.23,2.53-24.82-.46-1.46-.55-2.88-.7-4.32-.12-1.19-.78-3.03,1.02-3.3,1.58-.24,1.86,1.61,2.33,2.78.67,1.68,1.14,3.44,1.77,5.14,1.19,3.21,3.1,3.39,5.66,1.38,3.3-2.59,3.82-6.49.5-11.01-2.76-3.76-4.13-7.76-4.67-12.28-.22-1.85.04-4.85-2.04-5.11-2.25-.28-2.24,2.73-2.93,4.47-.49,1.22-.87,2.49-1.33,3.73-1.36,3.58-2.68,7.11-6.96,8.36-4.29,1.25-6.52-1.76-9.33-4.8-.72,2.99-.09,5.14.47,7.34.64,2.55,1.35,5.12,1.57,7.72.88,10.33-3.57,18.65-10.56,25.68-8.58,8.64-12.71,18.75-11.27,30.9.49,4.08,1.32,8.14,2.35,12.12,2.83,10.93,2.41,21.53-2.45,31.85-1.97,4.19-3.54,8.56-3.88,13.22-.2,2.66-.25,5.62,2.9,6.66,2.98.98,4.52-1.5,5.85-3.51,4.11-6.23,5.57-13.32,6.07-20.64.77-11.32-.88-22.44-3.75-33.29-2.57-9.69-1.21-18.03,5.11-25.96,5.02-6.3,9.73-12.9,13.34-20.21,1.51-3.06,1.53-6.72,4.46-10.33,1.56,6.22-.5,10.67-2.77,15.01-2.75,5.26-5.83,10.35-8.46,15.67-5.54,11.2-7.48,22.77-3.26,34.95,1.18,3.41,1.77,7.03,2.73,10.53,4.06,14.72,1.96,28.04-8.67,39.58-2.57,2.78-4.76,5.91-7.09,8.9-2.35,3.01-4.51,6.2-5.31,9.96-.45,2.13-1.41,4.88,1.05,6.35,2.15,1.29,4.13-.45,5.8-1.7,5.97-4.47,9.7-10.63,13.01-17.18,8.89-17.59,8.63-36.16,6.23-55.01Z"/>
  <path class="cls-1" d="M341.49,535.88c-.16-3.31-1.14-6.47-2.35-9.56-2.62-6.72-3.48-13.73-3.14-20.88.11-2.28.58-4.59,1.25-6.77.68-2.19,2.29-3.89,4.78-3.4,2.77.54,2.84,2.98,2.45,5.14-.52,2.91-1.29,5.79-2.09,8.64-.69,2.47-.82,4.85.23,7.24.86,1.95,2.14,3.49,4.4,3.41,2.31-.09,3.33-1.77,3.89-3.86.75-2.77.76-5.53.2-8.32-.81-4.03-1.78-8.05-2.29-12.12-.46-3.67.17-7.15,4.77-7.79,3.57-.5,5.8,2.23,6.22,7.27.61,7.32-1.72,14.01-4.49,20.58-3.65,8.67-7.25,17.36-9.07,26.63-.82,4.2-1.33,8.53.49,12.65,1.03,2.33,2.99,3.64,5.55,3.25,2.6-.4,3.18-2.61,3.38-4.83.21-2.31-.16-4.58-.48-6.88-1.18-8.53-3.13-17.84,2.64-24.88,7.36-8.98,9.04-18.31,6.64-29.06-.32-1.44-.38-2.94-.43-4.42-.13-3.85.57-7.07,4.82-8.75,3.32-1.31,4.55-4.66,5.45-7.88.98-3.5,1.55-7.12,1.25-10.77-.51-6.14.87-11.75,4.11-16.99,2.97-4.8,3.31-9.94,1.35-15.21-2.41-6.47-4.87-12.92-7.3-19.38-.14-.89-.27-1.78-.41-2.67-.22-1.1-.44-2.2-.66-3.29,0-.44,0-.89,0-1.33.2-1.09.4-2.19.6-3.28.28-1.03.56-2.06.84-3.09.28-1.03.55-2.06.8-3.1.45-1.9.85-3.79,1.16-5.69.38-2.37.6-4.74.55-7.1,0-.02,0-.04,0-.06-.02-.84-.08-1.67-.17-2.51-.09-.85-.23-1.69-.4-2.53-.12-.57-.25-1.13-.41-1.7-.29-1.03-.65-2.06-1.09-3.09-.01-.08-.03-.16-.04-.24-.05-.35-.11-.7-.19-1.04-.04-.16-.09-.31-.13-.47-.07-.26-.13-.52-.21-.77-.52-1.63-1.29-3.17-2.08-4.69-.39-.76-.79-1.53-1.16-2.3-2.41-5.05-3.37-10.53.04-15.01,6.53-8.58,5.05-16.2-1.1-23.89-.3-.37-.59-.76-.88-1.14-.18-.62-.36-1.24-.54-1.87-.23-.67-.46-1.34-.69-2,0-1.31,0-2.62,0-3.93.23-.67.46-1.33.69-2,.17-.84.48-1.74.4-2.48h0c-.07-.55-.36-1.02-1.1-1.3-.25-.09-.55-.17-.91-.21-.98-.82-1.96-1.14-2.91-.66-.32.16-.64.4-.95.75-.9.4-1.17,1.09-1.23,1.88-.02.26-.02.54,0,.81-1.85,3.94.25,8.11-.7,12.1-1.04,2.55-1.04,5.88-4.71,6.6-1.03-3.26-.12-6.1.78-8.94.47-1.5,1.78-3.44-.21-4.34-2.3-1.04-2.89,1.46-3.81,2.9-.53.83-.94,1.74-1.3,2.66-2.07,5.18-5.34,8.72-10.47,11.65-6.45,3.69-13.53,7.92-13.68,17.2-.03,1.83-1.63,3.19-3.2,4.2-1.94,1.24-3.94,2.39-5.9,3.59-9.41,5.76-12.09,14.1-7.61,24.1,1.94,4.32,4.16,8.52,6.26,12.77.5,4.81-.45,9.45-1.36,14.14-1.42,7.29-1.78,14.65.29,21.92.69,2.43,1.64,4.9,4.8,4.68,3.41-.23,4.68-2.85,5.12-5.73.53-3.48-.19-6.81-1.91-9.98-3.3-6.09-4.53-12.31-1.01-18.86,1.02-1.89,1.29-3.72.94-5.44-.35-1.73-1.33-3.36-2.81-4.86-.64-1.03-1.29-2.05-1.93-3.08-.64-1.03-1.28-2.06-1.88-3.11-2.68-4.64-2.07-11.65,1.22-14.48,1.03-.89,2.19-1.68,3.52-.81,1.3.85.56,2.08.13,3.08-.7,1.65-1.11,3.2-1.25,4.68-.1,1.06-.05,2.07.14,3.04.07.38.16.76.28,1.13.61,1.94,1.81,3.69,3.56,5.29.61.55,1.29,1.09,2.03,1.6.31.49.61.98.89,1.47,1.97,3.45,3.1,7.08.95,11.03-5.06,9.29-2.62,17.75,2.54,25.99.22.31.45.63.67.94,0,.06.02.1.03.15.03.27.14.51.38.68,1.06,2.68.89,5.15-.23,7.47-.37.77-.85,1.53-1.43,2.27-1.21,1.57-2.39,3.16-3.52,4.79-6.83,9.75-7.07,20.64-5.44,31.83.33,2.23,1.23,4.27,3.9,4.37,2.89.11,3.44-2.35,3.92-4.34.81-3.37.99-6.83.56-10.32-.13-1.04-.2-2.06-.2-3.06,0-1.09.06-2.16.19-3.21.67-5.69,3.18-10.84,6.71-15.66.01,0,.02-.02.03-.03,0,0,0,0,0,0,0,0,0,0,0,0,0,0,0,0,0-.01,0,0,0,0,0,0,0,0,0,0,0,0,0,0,0,0,0,0,0,0,0,0,0,0,0,0-.08.08-.08.09,0,0,0,0,0,0-.14-2.08,1.23-3.66,1.85-5.49,1.69-5.01,1.46-9.6-2.48-13.54-.07-.33-.22-.62-.45-.87-.25-.34-.51-.68-.76-1.02-.69-1.21-1.36-2.44-1.97-3.68-2.63-5.37-4.04-10.97-.33-16.66,1.19-1.82,2.05-3.6,2.59-5.34.54-1.74.77-3.45.7-5.15-.04-1.07-.22-2.12-.49-3.18-.2-.76-.45-1.52-.77-2.28-.64-1.53-1.5-3.06-2.59-4.61-.51-.84-.98-1.68-1.41-2.52-.3-.59-.56-1.17-.81-1.76-.14-.33-.28-.66-.4-.99-.42-1.11-.74-2.22-.95-3.33-.18-.95-.29-1.9-.31-2.85-.02-.87.04-1.73.18-2.61.2-1.31.58-2.64,1.16-3.98.39-.9.86-1.8,1.43-2.71,1.31-2.08,1.04-4.75.47-7.24-.39-1.7-.28-3.63,1.93-3.7,2.31-.07,3.53,1.53,3.4,3.88-.13,2.4-1.7,4.23-2.68,6.29-3.26,6.91-2.26,10.88,3.98,15.78,2.1,2.42,3.53,4.89,2.56,8.42-.68,2.49.81,4.52,3.25,5.36,2.48.86,4.5-.16,5.89-2.33,1.84-2.86,1.79-5.94.63-8.95-.33-.85-.71-1.67-1.15-2.46-.87-1.56-1.95-2.98-3.25-4.23-.65-.62-1.35-1.21-2.1-1.74-.02-.02-.03-.04-.05-.07-.41-.6-.77-1.14-1.1-1.64-.46-.72-.85-1.36-1.14-1.95-.21-.42-.37-.82-.49-1.2-.17-.54-.27-1.05-.27-1.56,0-.22.02-.43.05-.65.23-1.52,1.26-3.13,3.1-5.58,1.6-2.14,2.11-4,1.28-6.78-1.58-5.3,2.87-10.84,8.47-11.23.53,1.16.45,2.34-.48,3.16-3.38,2.96-4.16,6.33-2.29,10.49.84,1.86.46,4.01-.94,5.53-4.18,4.52-3.07,8.36,1.12,12.07,1.08.96,1.87,2.25,2.79,3.38,3.78,6.74,5.03,13.4,0,20.24-7.22,9.83-6.11,19.58.77,29.09,2.43,3.36,4.56,6.83,4.91,11.1h.13c-.14.03-.23.1-.28.18-.05.09-.06.2-.03.35-.25.9-.5,1.8-.76,2.7l-.11-.02s0,0,0,0h0c-.29.69-.59,1.38-.89,2.08l-.1-.05c-.39.62-.77,1.24-1.14,1.86-1.79,3.03-3.27,6.18-3.85,9.6-.13.8-.23,1.6-.25,2.43-.02.73,0,1.48.07,2.24.26,2.76.39,6.11,3.97,6.53,3.7.43,4.89-2.73,5.9-5.58.38-1.07.6-2.26.55-3.39-.23-5.02,1.12-9.77,2.37-14.53.64-2.43.82-4.86.35-7.33.08-.33.05-.65-.08-.96-.06-.33-.13-.66-.19-.98-.66-2.91-1.76-5.64-3.02-8.31-1.26-2.66-2.66-5.26-3.94-7.91-1.7-3.55-2.07-6.88-.08-10.29,5.07-8.68,4.83-18.2,4.43-27.73-.07-1.71-.55-3.26-1.53-4.51-.59-.75-1.36-1.39-2.33-1.9-1.15-1.25-2.08-2.47-2.79-3.68-2.12-3.63-2.21-7.16.07-10.99,2.57-4.32,4.87-8.46,4.86-13.7,0-2.14,1.81-3.78,4.15-3,2.65.88,1.29,2.98.6,4.48-4.64,10.15-7.56,20.18.65,30.1,1.1,1.33,1.5,3.25,2.23,4.89.97,7.68-.64,14.92-3.57,21.98-1.35,3.24-1.91,6.43-1.63,9.54.28,3.11,1.4,6.14,3.4,9.08,2.65,4.58,4.69,9.2,5.85,13.89,1.93,7.82,1.41,15.84-2.88,24.15-.44.86-.83,1.95-.71,2.86,1.08,8.15-4.64,13.33-8.35,19.36-2.6,4.24-6.49,6.95-11.08,8.72-17.45,6.72-19.65,10.11-18.63,28.63.05.82.06,1.65.17,2.47,1.05,7.33.34,14.88,2.6,22.06.68,2.17,1.8,4.12,4.53,3.51,2.49-.56,3.37-2.64,3.25-4.93Z"/>
  <path class="cls-1" d="M396.31,390.46c-2.35-6.71-3.9-13.55-1.55-20.52,1.5-4.45-.48-6.83-4.35-6.68-7.31.29-9.14-4.12-10.09-9.89-.19-1.12-.59-2.24-1.08-3.28-.47-.99-.96-2.37-2.39-1.99-1.01.27-1.26,1.41-1.37,2.44-.52,4.83-.47,9.54,2.34,13.81,2.06,3.13,2.77,6.56,2.61,10.32-.35,7.91-1.25,15.75-2.47,23.57-.81,5.22-1.67,10.5.71,15.55,1.26,2.68,3.41,5.02,6.54,4.09,3.04-.91,2.26-4.06,1.91-6.4-.95-6.51-2.19-12.98-3.18-19.49-.48-3.11-1.27-6.31.48-10.08.87,1.09,1.61,2.21,2.27,3.33.81,1.39,1.49,2.79,2.14,4.19.42.9.82,1.79,1.23,2.67.5,1.08,1.02,2.15,1.59,3.19.18.52.35,1.04.5,1.56.47,1.64.77,3.29.91,4.95,0,.09.02.19.03.28.08,1.11.1,2.22.04,3.35-.06,1.15-.18,2.31-.37,3.49-.84,5.22-.68,10.55.03,15.8.76,5.6.86,11.21.53,16.8-.23,3.95-.79,7.98-4.02,10.97,1.55-5.93,2.3-11.9,2.04-17.99-.2-4.78-1.25-8.76-7.24-8.72-.62,1.15-.16,2.3.15,3.36,2.4,8.33,1.41,16.14-2.42,23.98-2.63,5.4-3.09,11.56-1.82,17.48,1.22,5.71-.47,9.62-5.53,12.35-3.2,1.72-4.74,4.57-4.47,8.2.28,3.78.73,7.55,1.19,11.32.87,7.21.6,14.32-3.52,20.54-5.1,7.72-4.05,14.89.94,22.03,2.89,6.64,3.86,13.51,2.39,20.65-.64,3.11-.95,6.21,3.17,6.91,4.03.68,6.06-1.74,6.88-5.4.44-1.95.22-3.89-.11-5.86-.3-1.78-.75-3.48-1.32-5.14-.41-1.2-.89-2.36-1.4-3.52-.38-.85-.77-1.7-1.18-2.54-.29-.59-.58-1.18-.89-1.77-1.1-2.13-2.26-4.24-3.37-6.37-.52-1.35-1.05-2.69-1.54-4.05-1.79-4.96-.06-7.51,5.36-7.93,3.5,5.51,2.02,11.82,2.83,17.76.33,2.42.24,5.38,3.81,5.15,3.14-.2,4.85-2.52,4.5-5.42-.24-2.02-.5-4.05-.83-6.05-.99-6.01-2.61-11.86-6.16-17.1-2.76-2.55-3.35-5.45-2.6-8.81.11-.48.24-.97.4-1.47,1.41-4.42,1.53-8.86.36-13.58-1.78-7.17,1.56-14.09,7.95-18.49,1.07,2.46.44,4.82-.25,7.19-1.58,5.38-3.24,10.74-4.62,16.17-.96,3.75-.99,7.56,1.22,11.01,1.06,1.65,2.6,2.59,4.63,2.06,2.13-.56,1.91-2.37,1.91-4.03,0-20.52,1.56-40.83,7.65-60.58,2.2-7.14,3.92-14.35,1.9-21.88-1.77-6.59-.82-13.13.57-19.61,1.67-7.8.53-15.05-3.56-21.87Z"/>
  <path class="cls-1" d="M275.35,246.69s.01.04.02.05c.03.02.05.03.08.04l-.1-.1Z"/>
  <path class="cls-1" d="M391.41,231.79c-1.86-3.76-4.39-6.92-8.35-8.6-5.23-2.22-7.61-6.4-8.74-11.73-.72-3.39-.74-6.89-1.88-10.28,2.52,1.89,3.42,4.71,4.62,7.29,2.03,4.34,4.16,8.61,7.18,12.35,3.75,4.66,5.73,4.68,9.21.03.59-.79.94-.34,1.5-.33,4.17.12,5.52-2.96,4.56-5.88-2.02-6.16-3.8-12.24-3.4-18.79.06-1.02-.55-2.02-1.54-2.33-1.07-.34-2.09.31-2.17,1.41-.19,2.61-1.73,2.79-3.78,2.51-1.86-.25-3.36.54-3.86,2.33-.49,1.73.25,3.4,1.78,4.26,5.11,2.87,5.26,7.79,5.95,12.97-7.09-3.24-10.3-9.2-12.93-15.44-2.51-5.97-7.03-9.32-12.82-11.43-7.48-3.15-18.05-.17-22.46,6.9-4.48,7.18-7.25,15.47-14.93,20.42-1.89,1.22-2.5,4.1-.54,6.13,1.88,1.96,4,.88,5.75-.5,3.45-2.72,5.29-6.62,7.37-10.35,2.12-3.78,3.12-8.21,7.25-12.49-2.14,7.18-.63,15.03-5.8,18.64-8.1,5.66-14.12,12.59-19.13,20.76-.07-.14-.13-.32-.23-.34-.25-.05-.51-.04-.75.02.11.21.38.37.9.43,0,0,0,0,0,0,0,0,0,0,0,0l.11-.05c-3.42,4.25-8.79,4.97-13.28,7.22-10.71,5.38-15.19,14.09-14.64,25.75.3,6.31,1.69,12.47,4.15,18.18,1.95,4.53,2.24,8.86,1.26,13.45-.51,2.37-.27,4.61.55,6.78.6,1.59,1.71,2.96,3.62,2.86,1.67-.08,2.54-1.42,3.14-2.82,1.76-4.08,1.02-8.15-.5-12.03-2.44-6.19-4.45-12.46-5.77-19.01-2.88-14.21-.81-19.45,12.14-25.86,7.7-3.81,13.18-9.42,17.11-16.88,1.27-2.41,2.01-5.4,4.69-6.73,7.8-3.87,13.5-9.68,16.99-17.65,1.99,2.7.37,5-.91,7.26-1.91,3.38-5.26,5.33-8.03,7.87-.31.25-.61.5-.92.75,0,0-.06.04-.06.04-4.28,2.33-8.78,5.29-9.49,10.07-1.51,10.17-7.88,15.31-16.48,18.95-1.48.63-2.82,1.67-4.12,2.66-5.53,4.21-7.53,9.68-5.92,16.5,1.17,4.97,3.32,9.55,5.3,14.21.18.7.36,1.39.54,2.09.13.32.26.64.39.96,2.98,12.59,1.1,24.75-3.24,36.69-1.89,5.21-2.27,10.56-1.49,15.97.28,1.94,1.1,3.97,3.38,4.45,2.03.43,3.38-.96,4.61-2.34,2.48-2.78,3.8-6.16,4.67-9.68,4.29-17.47,3.26-34.55-4.03-51.12-1.09-3.41-2.28-6.8-3.26-10.24-1.97-6.95-.86-9.51,5.39-12.81,1.3-.68,2.63-1.37,4.01-1.83,5.54-1.84,8.92-5.7,11.08-11.01,2.21-5.43,4.3-10.97,7.94-15.7,3.71-4.02,8.6-5,13.74-5.5,2.31-.23,5.51-1.02,4.54-3.88-1.85-5.43,2.76-8.46,3.7-12.77.19-.89.85-1.92,2.09-1.67.89.18,1.14.99,1.42,1.81,2.29,6.61,7.3,10.91,13.02,14.28,2.97,1.75,5.28,3.75,6.82,6.75,1.31-.66,2.62-1.32,3.94-1.98-.1-.32-.2-.64-.31-.96-.23-.34-.45-.69-.68-1.03ZM363.57,193.24c-.33.91-.65,1.83-.98,2.74-2.32.5-4.17.13-5.03-2.94,2.13.06,4.1,1.11,6.01.21ZM362.66,207.5c-3.17-3.7-4.68-1.42-6.69.84-.51.57-1.36.83-2.06,1.23-2.02-2.56-2.29-5.34-.81-10.2.73,9.8,3.93,3.89,6.3,2.96,2.24,1.97,4.74,3.28,8.13,2.9-1.12,2.56-3.35,4.06-4.88,2.27Z"/>
  <path class="cls-1" d="M293.24,336.06c-1.03-1.66-1.85-3.45-2.76-5.18.07-.69-.33-1.69-.59-2.59-.02-.08-.05-.17-.07-.25-.15-.58-.22-1.12-.03-1.47.3-.57,1.25-.71,3.54.05,2.59,1.79,3.55,4.62,4.72,7.33.57,1.34,1.11,2.95,2.97,2.81,1.5-.11,2.05-1.52,2.69-2.65,1.18-2.08,1.73-4.04,1.79-5.9.02-.74-.03-1.47-.16-2.19-.19-1.07-.53-2.11-1-3.13-.94-2.03-2.38-3.96-4.08-5.84-.43-1.4-1.07-2.8-1.48-4.21-.4-1.42-.56-2.86,0-4.35,1.93-5.16-2.22-8.9-3.44-13.09-1.02-3.53-6.49,2.85-10.27-.09-.51-.4-1.57,2.49-1.46,4.15.11,1.64.54,3.26.57,4.89.05,2.56-.38,5.22-3.04,6.25-4.85,1.89-5.05,5.4-4.07,9.66,1.03,4.48-.3,7.81-5.07,9.13-4.86,1.34-7.22,4.96-8.34,9.5-2.25,9.12-3.46,18.4-4.05,27.76-.2.27-.23.55-.09.85-.21.69-.42,1.37-.63,2.06-1.04,5.28-2.19,10.55-3.08,15.86-1.25,7.43-3.06,14.8-3.15,22.39-.03,2.51-.6,6.14,2.68,6.54,3.38.41,3.48-3.46,4.09-5.77,1.46-5.56,2.34-11.25,2.24-17.04.35-1.15.57-2.3.72-3.45.14-1.16.2-2.32.21-3.48.02-2.32-.16-4.66-.26-6.99.08-3.64.17-7.28.25-10.92.46-2.04.81-4.1,1.13-6.17.19-1.21.38-2.42.56-3.62.15-.98.31-1.97.48-2.95.45-2.55.99-5.07,1.78-7.55,1-3.13,1.86-6.37,4.16-8.85.85-.92,2.04-1.9,3.45-.96,1.31.87,1.27,2.24.77,3.55-.35.91-.83,1.8-1.37,2.61-4.85,7.22-6.44,15.37-6.83,23.86-.19,14.06-2.54,27.84-5.08,41.62-3.02,16.36-6.02,32.77-3.77,49.56,1.36,9.35,3.86,18.37,8.13,26.81,1.04,2.06,2.14,5.65,4.91,4.59,2.96-1.13,1.6-4.63.97-7.06-.55-2.11-1.23-4.19-1.97-6.23-1.02-2.79-2.17-5.53-3.33-8.27-1.39-3.28-2.8-6.55-4.02-9.89-.09-.64-.18-1.28-.26-1.92.1-.82.02-1.6-.32-2.32-.11-.24-.26-.47-.43-.69-.06-1.35-.13-2.7-.19-4.05,0-4.51.02-9.03.03-13.54.28-1.98.54-3.96.81-5.94.59-4.38,1.19-8.75,1.89-13.11,1.8-11.2,4.84-22.17,6.68-33.36.61-3.73,1.09-7.48,1.35-11.28.04-1.56.09-3.12.13-4.67.04-1.56.08-3.12.09-4.67.04-4.53.54-9.05,3.99-12.3,4.56-4.31,9.29-8.36,9.7-15.27.01-.24.8-.44,1.23-.66,2.75,5.71.43,10.2-3.59,14.12-5.39,5.25-9.06,10.96-8.33,19.07,1.15,12.63-1.31,24.78-5.6,36.71-2.66,7.4-4.2,15.19-4.25,23.15-1.42,6.64-1.58,13.28.26,19.87.29,1.05.84,2.47,2.14,2.39,1.29-.08,1.42-1.49,1.69-2.61.79-3.22.98-6.48.97-9.74,0-1.96-.08-3.92-.13-5.88.39-2.79.69-5.59,1.09-8.37.66-4.64,1.57-9.23,3.53-13.6-.27,6.24-.98,12.43-1.34,18.63-.14,2.34-.1,6.02,2.7,5.96,2.4-.06,1.92-3.69,1.76-5.84-.79-11,1.31-21.59,3.89-32.2,1.56-6.4,3.56-12.82,3.17-19.77-2.61.81-1.52,4.23-4.49,4.74,2.62-10.16,4.46-20.24,11.37-28.49,4.08-4.87,4.65-10.38,1.13-16.01Z"/>
  <path class="cls-1" d="M333.76,324.01c-5.28,2.34-9.22,6.07-9.3,12.75-.03,2.68,1.14,2.52,2.51,1.92,1.28-.56,2.5-1.66,3.32-2.83,3.11-4.43,7-7.8,12.03-9.91,6.42-2.68,6.96-8.94,8.93-14.5,1.41-3.99-3.23-3.87-3.83-7.04,4.56.89,6.84-1.49,8.28-4.95.65-1.56,1.58-2.26,3.33-2.32,3.06-.12,5.79-.33,7.1,3.51.73,2.12,2.55,4.14,5.25,3.75,2.79-.41,2.35-3.23,3.05-5.11.69-1.84.97-3.84,1.71-5.65.79-1.91,2.19-3.38,4.49-3.27,2.39.11,2.64,2.11,3.1,3.86-.13,3.29-.08,6.61-.44,9.88-.39,3.61-1.1,7.18-.35,10.81.59,2.87,2.21,5.14,5.28,4.9,3.38-.26,2.69-3.41,2.51-5.47-.62-7.05-1.57-14.07-2.4-21.09-.07-1.3-.13-2.61-.2-3.91-.25-.64-.5-1.28-.74-1.92-2.01-2.69-3.68-5.79-6.8-7.34-7.87-3.91-10.25-10.5-9.42-18.71.3-2.95.66-5.85-.6-8.67.36-3.08-2.1-5.73-1.59-8.96,2.92.44,3.5,2.39,3.56,4.65.06,2.15.3,4.24,1.12,6.24.86,3.49,1.95,6.95,2.52,10.49.88,5.4,3.86,8.47,9.19,9.39,3.3,2.35,5.17,5.41,4.93,9.6-.11,1.86.76,3.4,2.59,3.7,2.05.33,2.76-1.53,3.32-3.05,1.88-5.11-.56-9.78-6.96-13.61-.32-.21-.63-.42-.94-.62-.29-.24-.58-.48-.87-.72-4.47-2.75-5.44-7.25-5.9-11.96-.39-4.02-.48-8.08-1.63-12-1.33-3.72-2.36-8.27-7.37-7.78-2.45.24-4.36,3.45-7.66,1.19-.84-.58-2.49,1.54-1.68,3.22,1.52,3.15,1.51,6.24.42,9.48-.42,1.26,1.04,3.05-1.02,3.84-.36.14-1.01-.06-1.33-.33-1.42-1.2-.65-2.64-.45-4.1.43-3.24,4.19-7.51-2.49-8.79-.85-.16-.59-1.12-.47-1.7.78-3.84-1.41-2.61-3.38-2.11-1.25.32-2.59.41-3.88.37-5.36-.21-8.69,2.3-9.72,7.61-.44,2.26-.88,4.58-.86,6.87.07,8.22-2.74,14.6-10.21,18.88-4.15,2.37-6.09,6.4-5,11.42.4,1.82.9,3.93,3.06,3.92,2.41-.01,3.17-2,3.09-4.22-.19-4.99,2.24-8.25,6.88-9.59,4.04-1.16,5.93-3.97,6.84-7.67,1.53-6.22,3.77-12.29,4.13-18.78.12-2.17.98-3.61,4-3.69-2.35,6.57-3.6,12.81-2.9,19.29.84,7.83-2.45,13.33-9.38,16.9-3.46,1.78-6.71,4.3-7.31,8.25-1.34,8.79-2.18,17.65-3.03,26.5-.19,2.02-.22,4.81,2.62,5.06,2.7.24,4.6-1.45,5.22-4.28.46-2.1.79-4.16.48-6.36-.5-3.59-.98-7.21-1.02-10.83-.03-2.8-.99-6.73,2.51-7.77,4.12-1.22,4.74,2.98,6.11,5.65.23.65.47,1.3.7,1.96,0,0,0,.04,0,.04.5,3.84.47,3.81-1.87,6.79-.34.44-.27,1.28-.25,1.92.19,8.14-3.31,13.67-10.92,17.04ZM351.64,281.76c3.57-4.05,5.42-8.46,5.15-13.92-.14-2.78-.9-6.63,3.41-6.99,4.75-.4,3.8,3.85,4.5,6.63-1.01,5.5,1.05,9.99,4.51,14.06.84.99,1.78,2.05,2.15,3.24.61,1.97.26,5.2-1.48,5.08-3.82-.27-7.74,2.43-11.2.21-2.79-1.79-4.59,1.77-6.97.5,0,1.27-.12,2.46-.44,3.52.32-1.06.44-2.25.44-3.52-3.72-2.9-2.46-6.1-.07-8.81Z"/>
  <path class="cls-1" d="M391.33,572.76c.84-3.02,1.58-6.05,1.18-9.24-.25-2.01-1.08-3.38-3.3-3.65-2.46-.29-3.19,1.35-3.61,3.18-.81,3.53-1.34,7.13-2.23,10.64-1.36,5.36-3.36,6.59-8.93,5.95-.88-.1-1.91-1.07-2.61.2-.56,1.02.16,1.89.67,2.73.69,1.13,1.23,2.41,2.15,3.31,5.83,5.67,5.63,11.59,1.4,18.13-1.85,2.86-3.31,6.11-3.46,9.67-.1,2.3.48,4.37,3.21,4.75,2.76.39,3.94-1.21,4.09-3.72.13-2.2.74-4.22,1.93-6.05,2.5-3.82,2.94-7.84,1.94-12.28-1-4.39-2.18-8.91.29-13.4,3.83,8.68,4.33,12.2,3.63,20.32-.26,2.99-.99,6.9,3.72,7.17,4.75.28,4.89-3.47,4.97-6.87.09-3.9-1.13-7.54-3.01-10.84-3.67-6.43-3.96-13.07-2.03-20.01Z"/>
  <path class="cls-1" d="M633.63,210.65c-1.91-10.83-1.02-22.05-4.6-32.63-1.55-6.02-5.62-10.43-9.55-14.92-2.8-4.73-7.18-8.46-8.79-13.93,0-2.97-.63-6.11.14-8.86,2.4-8.58-2.17-14.2-7.63-19.43-12.03-11.53-26.48-20.16-38.36-31.89-1-.99-2.52-1.46-3.81-2.17-4.88-1.87-9.23-5.27-14.79-5.2-9.16-2.66-18.5-2.44-27.79-1.22-6.64.88-13.28,2.18-18.84,6.42-3.53,1.61-6.06,4.45-8.71,7.13-4.39,4.46-8.83,8.86-14.18,12.19-2.86,1.79-6.18,3.45-9.3,2.21-5.16-2.06-5,1.19-5.31,4.35-.72,7.41-2.57,9.24-10.09,9.87-5.8,0-12.28-6.87-12.71-11.68-.29-3.28-.64-6.56-1.19-9.8-1.29-7.57-4.28-14.03-11.87-17.31-4.71-3.79-11.06-4.31-15.85-7.94-.33-.24-.65-.48-.98-.72-.31-.14-.62-.29-.93-.43-3.36-2.7-7.28-4.35-11.28-5.75-2.23-.78-5.11-2.12-6.57.82-1.47,2.96,1.03,4.84,3.12,6.45,3.04,2.34,7.04,3.1,9.78,5.94.32.2.64.39.96.59.31.25.63.49.95.74,4.43,3.67,8.74,7.44,11.77,12.43.12,2.48,2.59,5.21.29,7.34-1.79,1.66-3.31-.95-4.93-1.73-.3.04-.57.11-.83.19.25-.09.53-.15.83-.19-1.43-1.32-2.84-2.66-4.29-3.95-3.05-2.7-6.1-4.46-9.65-.57-1.33,1.45-3.27,1.24-5.07.69-2.9-3.34-3.89-7.49-4.98-11.61-1.38-5.22-2.38-10.6-5.16-15.32-1.63-2.76-3.98-5.68-7.43-3.95-3.5,1.75-1.01,4.92-.14,7.31,3.32,9.08-.6,21.11-8.76,26.34-3.49-2.57-2.67-6.01-1.7-9.33.92-3.15,2.4-6.15,3.15-9.32.78-3.33,1.81-6.76.92-10.24-.57-2.25-1.93-3.83-4.55-3.67-1.87.11-3.62,1.19-3.32,2.93.79,4.55.27,8.49-3.02,11.96-.55.59-.48,1.89-.47,2.86.01,2.49,1.37,6.03-1.93,6.7-3.5.7-3.96-3.16-5.03-5.65-.13-.3-.21-.63-.31-.94-.3-3.57,1.37-6.7,2.12-10.04.98-4.32-1.88-8.62-5.68-8.85-4.8-.29-4.86,3.43-5.38,6.69-1.01,6.33.8,12.03,3.9,17.44,3.73,8.73,4.1,17.57.64,26.45-1.91,4.91-4.12,9.69-6.09,14.58-1.66,4.11-3.72,8.13-3.39,12.77.15,2.05,1.21,3.53,3.18,3.91,2.2.43,2.7-1.48,3.15-3.03,1.01-3.47,1.77-7.03,2.91-10.46.49-1.49.8-3.96,3.59-2.63.15.9.29,1.81.44,2.71-.02.99-.04,1.97-.06,2.96-.42,3.47-1.31,6.82-3.06,9.84-3.7,6.39-4.7,13.3-4.04,20.5.52,5.72,1.26,11.41-4.49,15.39,2.11,1.25,3.7.56,4.57-.45,1.48-1.72,2.18-1.68,3.57.1,2.16,2.78,5.03,3.08,7.85.99,2.93-2.17,3.43-5.19,1.79-8.33-.98-1.87-2.31-3.65-3.81-5.14-2.08-2.07-2.4-4.26-1.83-7.02,1.45-7.03,4.71-13.32,7.71-19.71,1.97-4.2,2.02-8.43.04-12.38-.94-1.88-1.25-3.96-2.4-5.71-1.02-4.21-2.62-8.27-2.09-12.79.34-2.85,1.37-3.36,3.69-1.94-.88,6.13,1.38,10.98,6.06,14.84,4.27,5.19,4.03,10.91,1.81,16.75-1.17,3.07-2.68,6.01-4.04,9-1.25,2.75-2.07,5.61-1.49,8.63.56,2.93,2.32,4.73,5.49,4.54,3.38-.2,3.13-2.74,3.1-5.08-.06-3.97-.49-8.22,2.35-11.33,3.42-3.74,4.27-7.9,3.73-12.64-3.09-3.14-4.36-7.47-7.02-10.89-.86-2.8-1.86-5.57-2.55-8.41-.57-2.34,0-4.56,1.7-6.38,1.3-1.39,2.74-1.26,4.49-.76,2.39.68,2.51,2.35,2.27,4.19-.96,7.47-1.04,14.89,1.13,22.19,1.68.3,1.61,2.4,3.04,2.96,4.03,6.54,3.56,13.37,1.49,20.39-2.52,8.55-4.75,17.21-4.18,26.21.19,3,.07,7.39,4.82,7.29,4.64-.1,5.78-3.7,5.79-7.69,0-3.13.13-6.29-.26-9.38-.42-3.33-.6-6.74.37-9.82,3.47-10.99,1.89-21.21-3.84-30.99-2.8-7.09-3.06-14.21-.43-21.42.57-1.56.68-3.42,3.12-2.29,1.21,3.6,1.48,7.28,1.23,11.07-.52,7.86,1.13,15.21,5.65,21.79.58,3.29,2.74,5.88,3.96,8.89,1.57,3.87,2.72,7.73.74,11.82-5.92,12.22-4.24,23.74,3.24,34.72.88,3.67,2.05,7.29-.14,11-.9,1.53-3.13,3.3-.9,5.16,1.75,1.47,4.15,1.02,6.14.19,2.75-1.15,4.4-3.34,5.04-6.31,1.4-6.52-.73-12.33-3.52-18.03-.41.29-.79.61-1.14.95.35-.34.73-.66,1.14-.95-.62-1.34-1.16-2.73-1.87-4.01-3.42-6.2-4.76-12.26-.98-19.06,2.59-4.66,1.8-9.97-.21-14.82-2.05-4.95-4.46-9.76-6.71-14.63-.95-2.58-1.96-5.14-2.83-7.75-1.33-3.98-1.04-7.7,1.75-11.24,2.05,2.23.69,5.13,2.3,7.12.37,5.38,1.66,10.52,5.86,14.16,5.31,4.61,7.24,10.41,7,17.12-.24,6.56-.49,13.14-1.13,19.67-.63,6.42,1.55,11.17,7.11,14.39,4.82,5.24,7.43,10.6,2.12,17.25-1.61,2.02-.36,3.62,2.38,3.68,3.56.08,6.22-1.49,8.33-4.22,1.17-.57,1.86-1.53,2.18-2.77,1.6-1.77,2.95-3.71,3.83-5.95,1.5-1.79,2.79-3.48,5.61-1.64,2.92,1.9,4.96.45,5.97-2.62.67-2.03,2.02-4.19,1.74-6.11-.94-6.44,3.11-10.1,6.89-14.04.3.28.6.56.9.84,2.85,5.04,5.05,10.2,3.98,16.26-.2,1.12.65,2.49,1.2,3.67,1.79,3.84,3.66,7.65,5.49,11.47.2,4.25,1.15,8.53-.7,12.68-1.54,3.44-1.76,6.94-.65,10.62.41,1.35,1.53,3.78-.68,4.14-2.1.35-2.6-2.17-2.89-3.91-.67-4.07.56-7.97,2.11-11.55,2.76-6.37,1.6-11.84-2.48-17.06-1.06-1.36-1.69-3.71-4.06-2.34-2.17,1.25-1.41,3.26-.22,4.68,3.1,3.72,2.7,7.49.78,11.52-.63,1.32-1.4,2.93-1.15,4.22.66,3.44,2.82,7.07-3,8.13-.47.09-.77,1.72-.95,2.68-1.05,5.46-6.67,8.15-8.09,13.4-.09.34-1.17.42-1.79.62-.2-.24-.41-.48-.63-.71-.46.52-.92,1.04-1.39,1.56t0,0c.46-.52.93-1.04,1.39-1.56.95-1.33,3.41-2.32,1.48-4.39-1.51-1.63-3.01-.1-4.43.63-1.31.68-2.56,1.79-3.94,1.98-4.46.61-5.82,3.44-5.48,7.34.35,4.04-.84,7.46-3.25,10.57-3.26,4.2-4.43,8.82-2.58,13.93.96,2.66.81,5.1-.56,7.59-1.19,2.16-.73,4.23,1.2,5.74,1.72,1.34,3.68,2.43,5.9,1.12,2.13-1.26,2.57-3.42,2.2-5.63-.33-1.93-.98-3.82-1.69-5.66-3.27-8.48-3.03-10.34,2.6-17.97.42,1.27-.43,2.23-.97,3.18-2.95,5.19-2.52,10.04,1.17,14.7,1.32,1.67,2.43,3.51,3.63,5.27.96,3.25.72,6.48-.17,9.71-1.19,4.29-1.97,8.63-1.63,13.12.17,2.31.97,4.55,3.49,4.61,2.88.07,3.55-2.9,3.06-4.68-1.68-6.09-.7-11.95.28-17.93.34-2.08-.25-4.24-1.75-5.96-.11-.32-.21-.65-.32-.97-.23-.33-.46-.67-.69-1-2.12-3.6-4.57-7.09-3.58-12.54,2.24,4.42,3.14,8.74,6.48,11.59,3.4,5.28,4.57,10.85,2.3,16.91-.28.75-.57,1.8-.26,2.41,3.97,7.93,3.49,15.51-1.13,23.08-.87,1.43-.28,3.74,1.71,4.65,2.05.93,3.49-.55,4.62-1.92,3.76-4.54,4.87-9.62,2.6-15.21-1.38-3.4-2.45-6.7-1.08-10.49,2.81-7.74.69-14.52-4.62-20.5-5.04-5.73-5.37-12.69-5.23-19.8.06-2.95.97-5.52,3.2-7.48,4.92-4.32,11.46-7.06,13.08-14.63,2.74,4.25.71,7-1.68,9.55-3.37,3.6-7.1,6.89-9.57,11.24-1.12,1.97-1.63,3.99.09,5.93.93,1.05,2.13,1.64,3.53,1.28,2.51-.65,3.32-2.8,3.33-4.93.05-6.25,3.19-10.76,8.1-13.9,7.46-4.78,9.55-11.41,7.59-19.57-.91-3.79-.32-7.13,1.47-10.44,1.74-3.21,2.42-6.46-.06-9.66h0c-.03-.33-.16-.62-.39-.86-.25-.37-.49-.74-.74-1.11-3.63-5.62-7.67-11.06-6.75-18.39.32-2.59.19-5.23.27-7.85-.09-.18-.18-.35-.26-.53.07.18.16.35.26.53.29-.24.58-.48.87-.73,1.27,1.8,2.01,3.94,1.45,5.97-2,7.3,1.08,12.54,6.38,17.02,3.67,4.48,4.1,9.41,2.27,14.78-.73,2.16-1.17,4.45-1.45,6.71-.21,1.74-.5,3.93,1.64,4.71,2.12.77,3.83-.57,5.06-2.17.89-1.15,1.63-2.5,2.06-3.88,2.88-9.2,1.7-17.48-5.8-24.22-5.1-5.57-5.93-12.1-4.73-19.29.71-4.24.25-8.52-1.1-12.68-.76-2.35-2.2-4.11-4.47-4.76-2.5-.71-2.86,2.2-4.57,3.77,0-4.79,5.5-7.71,2.8-12.46-.34-2.7-2.41-4.6-3.28-7.01-1.19-3.29-1.96-7.14,1.42-9.37,3.36-2.21,5.15,1.24,7.07,3.35.33.36.65.74.97,1.11,3.36,7.03,6.87,14,7.93,21.85-.19,4.26.03,8.65-1.64,12.64-3.06,7.29-1.08,12.95,4.56,18.06,4.68,4.24,8.57,9.12,8.99,15.87.61,9.45-4.35,16.61-9.62,23.7-6.58,8.88-15.06,16.19-20.99,25.6-5.14,8.16-6.72,16.27-.67,24.85,4.29,6.09,5.79,12.78,2.86,20.11-.9,2.25-1.11,4.82-1.34,7.27-.19,2.02.22,4.15,2.42,4.95,2.15.78,3.86-.47,5.16-2.06,1.81-2.2,2.86-4.73,3.26-7.61,1.08-7.72-1.56-14.71-4.38-21.54-3.45-8.36-3.23-16.25,1.3-24.04,2.17-3.72,4.84-7.06,7.73-10.25,6.21-6.84,12.49-13.67,16.76-21.96,3.78-7.34,6.06-14.97,2.39-23.15h0c-1.33-6.32-5.61-11.08-8.73-16.45-5.2-8.94-5.18-9.47,1.47-17.16,4.06-4.7,4.02-6.35-.37-10.83-1.03-1.05-2.16-2.01-3.24-3.01-.82-1.59-1.98-3.1-2.37-4.79-.7-2.98-.89-6.14,1.08-8.8,1.48-2,3.43-1.36,5.24-.28,2.16,2.7,1.69,6.77,4.81,8.99,2.68,1.91,3.32,4.69,3.19,7.83-.16,3.81-1.01,7.48-1.88,11.17-.79,3.35-1.88,6.67-1.63,10.2.09,1.37.38,2.67,1.79,3.27,1.59.67,3,.03,3.98-1.15.93-1.12,1.9-2.43,2.22-3.8,3.16-13.58,1.55-26.28-7.3-37.55-.17-.29-.34-.58-.51-.87-.26-.34-.53-.68-.79-1.02-1.18-1.92-2.75-3.53-3.3-5.91-.76-3.3,1.17-4.75,3.58-5.46,2.9-.85,2.89,1.93,3.4,3.65.45,1.56.4,3.26.8,4.85.36,1.42.88,2.97,2.66,3.21,1.74.23,3.36-.34,4.29-1.85,2.47-4.02,2.44-8.23-.12-12.11-2.38-3.6-5.68-5.37-10.18-3.5-1.2.5-2.35,1.52-4.06.31-4.93-3.48-6.43-2.69-6.99,3.34-.41,4.34-1.78,7.77-6.98,7.77-3.58-.95-4.06-4.43-5.72-6.96-1.12-1.71-.65-2.88,1.39-2.94,4.76-.15,6.79-3.3,8.5-7.11,2.58-5.74,6.12-10.59,12.71-12.21,8.86-.75,12.27,5.27,15.04,12.09,1.32-.68,2.63-1.36,3.95-2.04-.5-3.85-3.98-6.29-4.75-10.02-.79-3.83-.35-7.77,3.3-9.39,4.16-1.84,6.15,1.88,7.55,5.06,2.28,5.16,2.54,10.73,2.64,16.29-1.52,11.91-4.18,23.7-3.69,35.82-.19,1.49-.18,2.95.62,4.29.11,1.2.21,2.4.32,3.59,1.08,7.39,3.74,14.28,6.77,21.02,7.42,16.48,8.47,32.96.69,49.68-3.19,6.87-5.85,13.97-8.06,21.23-1.3,4.29-2.17,8.63-2.03,13.12.12,4,1.59,7.29,6.07,7.68,4.39.38,5.26-3.21,6.13-6.42.47-1.74.81-3.55.96-5.35.84-10.03,2.98-19.64,7.06-28.96,4.77-10.89,5.06-22.33,2.15-33.9-3.54-14.08-10.1-27.11-14.01-41.05-.07-.98-.14-1.96-.21-2.94-.05-.33-.09-.67-.14-1,0-1-.02-2.01-.03-3.01.05-1.63.1-3.27.15-4.9.74-5.18,2.27-10.15,3.84-15.13,2.02-6.39,3.65-12.88,1.35-19.6-.08-4.37-2.33-8.13-3.42-12.22-.56-2.08-1.39-4.17,1.02-5.68,2.49-1.57,4.57-.33,6.08,1.44,1.67,1.96,2.83,4.36,4.22,6.56,3.71,12.29,1.92,23.85-4.56,34.82-.99,1.68-1.6,3.57-1.47,5.6-3.4,9.79-.44,18.07,6.21,25.37,6.85,7.51,10.47,16.33,10.96,26.42.33,6.75.39,13.52.67,20.28.09,2,.47,4.13,2.91,4.62,2.65.53,3.91-1.41,4.85-3.38,2.34-4.94,2.75-10.16,1.85-15.49-2.5-14.8-10.25-27.39-17.17-40.31-1.88-3.51-3.56-7.07-4.59-10.89-1.41-5.24,2.09-13.77,6.76-16.71.95,1.77.1,3.51-.04,5.23-.49,5.82.36,11.32,4.81,15.5,7.03,6.62,10.84,14.32,9.82,24.24-.27,2.65-.72,6.85,3.41,7,4.19.15,4.94-3.74,5.25-7.13.14-1.45-.17-2.96-.44-4.41-1.4-7.51-5.24-13.84-9.74-19.82-3.03-4.03-5.34-8.39-6.24-13.33-.53-2.91-.99-6.02,2.09-9.74.57,8.27,5.04,13.3,9.74,17.72,10.61,9.98,11.94,22.11,10.02,35.51-.9,6.28-2.8,12.65-.4,19.05,1.5,9.94,6.64,18.59,9.89,27.91.6,5.48-.67,10.81-1.26,16.2-.3,2.72-1.08,6.01,2.68,6.97,3.42.87,5.55-1.38,7.06-4.16.95-1.74,1.4-3.64,1.67-5.63,1.1-8-1.22-15.28-4.42-22.41-2.87-7.64-8.18-14.34-8.83-22.84-.15-6.28.57-12.45,1.85-18.6,3.1-14.84.67-27.79-12.75-37.05-2.68-1.85-4.83-4.43-6.64-7.24-1.38-2.15-2.36-4.4-1.64-6.9,2.1-7.33-1.05-12.77-6.02-17.63h0c-.22-.6-.44-1.21-.67-1.81,0-.66,0-1.33,0-1.99.75-1.05,1.51-2.1,2.26-3.16,9.08,4.99,12.68,10.26,10.55,17.88-2.43,8.69.43,14.25,7.9,18.47,10.93,6.18,17.53,14.9,15.37,28.28-.04.62-.09,1.24-.13,1.85-.63.92-.98,1.92-.76,3.05-1.04,5.62-2.49,11.21-3,16.87-.53,5.91-1.68,12.25,3.76,16.96,3.79,4.29,7.49,8.64,9,14.35,1,3.77,1.95,7.56,2.92,11.33.09,7.75.41,15.53-2.28,23-1.17,3.24-2.88,6.33-2.78,9.92.06,2.26-.45,4.92,2.53,5.74,3.05.84,5.1-.9,6.4-3.41.9-1.73,1.57-3.63,2.02-5.54,1-4.23,1.79-8.5,2.69-12.87,5.47,3.68,7.46,3.18,9.39-2.94,3.1-9.87,3.44-19.7-1.96-29.06-1.54,1.57-2.91,3.25-3.27,5.52,2.04,7.89.04,15.15-3.65,23.16-.68-7.83-.64-14.88-3.43-21.42-1.94-7.38-7.85-12.07-12.1-17.88-.75-1.02-1.51-2.04-2.26-3.05h0c-.33-2.47-4.57-5.32-.79-7.2,3.81-1.9,3.54,3.04,4.93,4.97,1.92,2.67,3.5,5.56,6.59,7.12,4.82,3.84,8.19,8.75,10.71,14.31.36-2.27,1.73-3.95,3.27-5.52-2.16-5.43-6.26-9.41-10.1-13.59-2.25-2.78-4.54-5.53-6.74-8.36-2.56-3.28-4.15-7.03-4.91-11.1-.26-1.39-.63-3.13.95-4.01,1.5-.84,2.3.67,3.26,1.46.5.41,1.01.81,1.52,1.22,2.8,4.99,4.82,10.32,6.88,15.64,1.02,2.65,2.64,5.63,5.94,4.51,3.15-1.07,1.99-4.37,1.77-6.91-.04-.48-.35-.93-.41-1.41-.87-6.73-6.21-10.33-10.31-14.79-1.44-1.29-2.91-2.55-4.32-3.87-3.01-2.81-6.93-5.04-6.62-10.04.29-.77.57-1.54.86-2.32,3.99-10.99,6.14-19.15-9.63-26.26-4.5-2.03-8.72-4.87-11.07-9.52-1.08-2.15-2.51-4.58-.91-6.99,1.7-2.58,4.5-2.34,7.18-1.97,15.79,2.17,25.07,14.7,24.07,32.47-.15,2.6-.92,5.25.49,7.75.31,6.34,4.81,9.95,8.96,13.78,4.43,4.96,7.41,10.78,9.94,16.87,2.75,10.42,4.06,20.92,1.96,31.65-.79,4.02-1.4,8.09-1.93,12.15-.29,2.21.06,4.49,2.36,5.48,2.35,1.02,4.44.1,6.26-1.64,3.7-3.53,4.84-8.01,5.3-12.9.43-4.51-1.08-8.69-1.84-12.98ZM451.11,164.99c-.31.48-.12,1.29-.17,1.94-1.13,1.48-1.07,3.72-3.02,4.67-.22,3.6-1.71,6.64-3.43,9.58,1.72-2.94,3.2-5.98,3.43-9.58-2.1-.81-4.15-1.8-6.31-2.39-2.25-.61-4.42-.65-4.14,2.8.69,8.45-4.39,13.45-13.1,12.9-.98-.06-1.94-.32-2.91-.48-.68,1.49-1.22,3.07-1.95,4.53.73-1.46,1.27-3.04,1.95-4.53-5.94-3.4-7.29-9.38-5.56-14.81,4.4-13.81,2.81-25.59-8.07-35.81-2.82-2.65-3.78-6.8-5.37-10.39-.24-1.94-.66-3.89-.7-5.83-.09-4.53-.78-7.94-6.42-4.5-.73.45-1.66.55-2.13-.35-.86-1.65-.97-3.48-.64-5.27.21-1.14,1.28-1.49,2.29-1.34,1.61.24,3.19.65,4.78,1.04,1.65.4,3.01.12,3.55-1.65,1.86-6.11,3.52-1.64,5.25.07.33-.7.67-1.4,1.08-2.02-.41.62-.75,1.32-1.08,2.02,1.8,7.14,4.23,14.11,4.17,21.67-.03,4.17,2.89,7.28,5.86,9.95,6.24,5.6,9.81,12.23,8.77,20.85,1.36-.19,2.3-1.02,3.22-1.91-.91.88-1.85,1.72-3.22,1.91-1.23,3.84-1.49,7.73-.33,11.62.62,2.08,1.45,4.38,4.12,4.13,2.29-.22,2.87-2.33,3.32-4.34,1.18-5.25.94-10.4-.83-15.48-1.12-6.91-5.68-12.02-9.64-17.26-4.9-6.5-8.76-12.78-4.8-21.16.51-1.08.29-2.61.12-3.89-.17-1.32-1.8-2.82.4-3.73,2.02-.84,3.47.33,4.6,1.89,1.55,2.14.85,4.34.21,6.61-1.06,3.78-2.36,7.57-1.55,11.61.26,1.29.47,2.82,1.98,3.14,1.71.36,2.66-.96,3.48-2.24,2.17-3.4,2.32-7.19,1.77-10.97-.39-2.67.96-3.21,3.06-3.9,2.86-.93,2.41,1.62,2.85,2.63,1.88,4.35,1.34,9.02,1.28,13.61-.06,4.72-.76,9.52,1.8,13.9,1.04,4.77,3.9,8.37,7.97,10.73,4.17,2.42,7.62,4.65,4.08,10.04ZM439.07,257.76c-2.95-3.41-1.73-6.02,1.04-8.34-.35,2.78-.69,5.56-1.04,8.34ZM441.13,247.33c-.36.15-.6.36-.76.6.17-.24.41-.45.76-.6h0Z"/>
  <path class="cls-1" d="M190.76,316.65c-8.18-10.42-8.25-21.66-4.19-33.58,2.26-6.63,1.96-13.25-1.23-19.61,0-.32-.07-.62-.25-.88-.25-.47-.5-.95-.74-1.42-2.36-5.17-4.72-10.33-7.08-15.5.06-.33,0-.63-.18-.91.13-.83-.2-1.47-.81-2-1.67-3.5-1.11-7.12.42-10.27,3.07-6.31-.49-11.16-2.39-17.02-4.06,3.7-6.78,8.79-12.93,6.45-4.42-3.29-6.55-7.6-6.09-13.19.27-3.27.43-6.58.26-9.85-.13-2.57,1.24-6.9-2.28-6.99-2.98-.08-2.53,4.32-2.86,6.97-.92,7.29.19,15.17-4.17,21.53-5.43,7.92-5.06,15.91-2.26,24.35.39,3.18-1.21,5.7-2.69,8.27-2.46,4.27-5.16,8.43-7.33,12.84-3.52,7.15-3.83,14.18,2.01,20.51.23.3.46.6.7.9.21.33.41.66.62.99,1.68,3.54,4.43,6.13,7.59,8.27,2.04,1.38,4.38,1.71,6.38-.12,1.84-1.68,1.6-3.91.86-5.98-.86-2.4-2.68-4.1-4.66-5.64-1.94-1.51-3.82-3.1-5.72-4.65-2.7-9.44.58-19,8.85-25.18-1.42,6.76-3.54,13.35.74,19.6,1.34,3.78,4.15,6.29,7.5,8.12,3.81,2.09,6.17.54,5.8-3.75-.38-4.37-2.34-8.12-5.2-11.41-3.54-5.46-3.21-11-.66-16.78,2.52-5.7,2.05-11.14-2.37-15.9-.72-1.25-1.29-2.61-2.18-3.72-1.06-1.33-.56-2.73.14-3.55,1.4-1.64,2.05.65,3.12,1.01,1.84,3.54,5.69,5.88,6.17,10.24,1,6.91-1.39,13.94.78,20.81.07.64.13,1.27.2,1.91.94-.35,1.69-.82,2.3-1.4-.6.58-1.35,1.05-2.3,1.4.78,4.52,4.27,8.17,4.15,12.97.16.43.33.85.49,1.28,0,.46-.01.93-.02,1.39-.63,1-.84,2.09-.65,3.26-.09.98-.18,1.96-.28,2.94-1.54,5.03-3.37,9.99-4.54,15.1-.95,4.17-1.05,8.57.18,12.75.99,3.36,2.49,7.48,6.71,6.49,4.35-1.02,3.18-5.68,2.32-8.47-3.08-10.1-1.38-19.57,2.55-28.94.52-1.23.99-2.44.76-3.81,1.04-1.73,1.14-3.48.09-5.25-.62-6.27-5.24-10.84-7.05-16.6-1.63-5.32-.57-10.58-.54-16.64,2.89,2.24,2.66,4.82,3.77,6.74.22.75.44,1.49.67,2.24-.11.26-.07.49.12.7-.9,7.26,4.03,12.18,7.17,17.82,2.47,10.08.66,19.92-1.6,29.75-2.99,13.04-.28,25.14,6.53,36.41,1.48,2.46,3.75,4.37,7.04,2.76,3.22-1.57,3.73-4.23,2.99-7.49-.86-3.77-2.44-7.27-4.76-10.23ZM151.36,250.07c-1.22-3-.73-6.18-2.81-8.34-.3-3.38-2.08-6.69-.44-10.93,1.65,3.34,3.02,6.1,4.39,8.86,1.03,3.39,2.21,6.8-1.14,10.42Z"/>
  <path class="cls-1" d="M245.33,298.48c-.18,4.56.53,8.9,3.76,12.4,1.37,1.48,3.08,2.69,5.23,1.71,1.89-.86,2.43-2.72,2.25-4.58-.25-2.61-.4-5.36-1.36-7.74-2.95-7.31-1.54-14,2.76-20.08,5.35-7.56,4.89-14.94.45-22.55-1.98-4.62-5.21-8.39-8.55-11.99-6.69-7.22-13.22-14.57-18.48-22.9-7.32-11.58-6.75-21.84,3.13-31.18,7.62-7.2,8.68-14.51,4.36-23.38-1.49-11.7,2.59-21.93,8.61-31.54,2.97-4.74,4.73-4.93,9.04-1.96,0,2.14.81,4.75-.12,6.34-3.97,6.75-6.27,13.34.3,21.15-3.59-1.2-3.3-4.97-6.12-4.19-2.93.81-3.73,3.55-4.32,6.15-.99,4.39-1.22,8.97-.12,13.25,1.61,6.31-.13,11.32-4.27,15.91-2.65,2.94-5.48,5.76-7.79,8.95-4.59,6.32-3.23,16.46,2.59,21.11,1.54,1.23,3.35,2.77,5.31,1.79,2.09-1.05,1.66-3.45,1.32-5.37-.52-2.92-1.15-5.83-1.98-8.68-1.22-4.19-.58-8.23,2.47-11.05,6.17-5.69,8.01-12.43,6.96-20.5-.43-3.28,0-3.33,2.11-4.94,1.6,10.83-.22,21.17-7.55,30.21-1.9,2.35-2.29,5.58-.56,8.43,2.79,4.62,2.34,9.3,1.21,14.31-2.06,9.15-.4,12.45,7.88,17.57.13.33.38.52.73.54.35.28.7.57,1.05.85,4.38,3.17,6.7,7.35,6.98,12.85.14,2.68,1.77,4.86,4.89,4.02,2.56-.69,3.63-2.85,2.72-5.41-.59-1.65-1.56-3.28-2.73-4.6-2.93-3.3-6.07-6.41-9.12-9.6-1.21-2.73-2.73-5.42-.71-8.42,2.89,5.89,6.9,10.73,12.88,13.73,5.01,6.71,5.09,13.06.23,19.91-2.57,3.63-5.3,7.16-7.75,10.88-3.11,4.72-4.74,9.97-2.91,15.51,1.6,4.86,1.01,9.16-.77,13.86-2.03,5.34-1.52,10.83,2.87,15.13,2.86,2.8,6.32,2.81,9.5.57,3.27-2.3,1.31-4.92-.01-7.38-.55-1.02-1.11-2.03-1.74-2.99-2.48-3.8-2.94-7.58-.22-11.5,1.93-2.77,2.08-5.7.97-8.94-1.24-3.64-1.65-7.41.15-11.08,2.57-5.26,7.21-9.28,8.69-15.25.74,3.62-.61,6.46-2.32,9.25-2.23,3.63-4.74,7.34-3.7,11.86,1.17,5.05,1.8,9.92.23,15.06-.7,2.29-.28,5.58,2.81,5.94,3.23.38,3.67-2.63,3.87-5.18.37-4.69-.74-9.21-2.06-13.61-1.41-4.71-.39-8.69,2.35-12.52,2.76-3.85,5.47-7.74,4.58-13.01,2.79,2.95,1.86,6.02.69,9.09-1.17,3.06-2.81,5.97-2.78,9.41.02,2.15.66,3.9,2.68,4.89,1.41.69,2.58-.07,3.64-.86,1.81-1.34,2.64-3.53,1.55-5.25-2.92-4.62-1.21-8.9.33-13.22,1.52-4.25,1.05-8.03-1.75-11.61-1.51-1.93-3.47-3.95-3.25-6.5.43-4.93-2.53-7.44-6-9.8-1,2-2.01,3.99-3.01,5.99.66,2.12,1.42,4.21,1.93,6.37.23.97-.29,2.09-1.41,2.18-1.48.13-1.24-1.22-1.2-2.07.12-2.61-.28-5.1-1.36-7.47-.52-.29-1.04-.58-1.56-.87,0,0,0,0,0,0-.13-.36-.25-.72-.38-1.09-1.79-.05-3.53-.83-3.73-2.52-.41-3.51-2.49-5.56-5.13-7.35-1.13-.76-.83-2.07-1.27-3.09-.09-2.61-.38-4.75-3.91-5.06-3.07-.27-1.53-2.12-.43-3.31,1.37-1.49,3.1-3.03,1.83-5.12-3.35-5.52-3.6-10.71.44-16.04,1.02-1.35.87-3.28-1.17-4.1-1.66-.67-3.33-.6-4.29,1.2-3.24,6.06-7.3,11.93-3.56,19.38,1.09,2.17,1.49,4.7,2.04,7.1.53,2.28.53,4.59-.59,6.76-.54,1.05-1.18,2.26-2.55,1.75-1.13-.42-.75-1.67-.59-2.61.61-3.56,1.68-7.14.03-10.68-3.32-7.13-2.46-14.6,1.85-20.24,5.14-6.72,6.88-13.27,5.35-21.29-.37-1.93-.03-4.59,2.73-5.11,2.61-.5,3.71,1.59,4.79,3.5.89,1.57.65,4.3,3.55,3.88,2.99-.43,2.68,1.51,2.73,3.37.04,1.28-.91,2.92.79,3.63,2.27-.54.14-3.48,2.7-3.81.48.98.78,2.71,1.5,2.91,3.98,1.09,3.31,4.04,3.2,6.88-.02.42.44.85.68,1.28,2.74,2.72,8.04,3.49,6.62,9.36-.46,1.89.38,4.42,2.89,4.32,3.24-.13,2.57-3,2.24-4.95-.91-5.27.66-9.7,4.9-12.62,7.26-5.01,8.67-11.84,7.36-19.89-.37-2.26-.35-4.59-.5-6.89-.05-.33-.09-.67-.14-1-.01-.67-.03-1.34-.04-2.01-.17-.72-.34-1.44-.51-2.16,0-.57,0-1.14,0-1.72.79-6.31.69-12.98,6.33-17.49,3.69-2.95,5.39-6.95,6.43-11.32.68-2.87,1.06-5.8,1.69-8.69.74-3.39,1.83-1.52,2.85-.12,1.34,4.68.57,9.12-1.44,13.46-2.49,5.38-4.88,10.81-7.36,16.2-3.01,6.55-3.09,13.04.16,19.54,1.81,3.63,1.63,7.36.11,11-1.33,3.19-2.94,6.26-4.38,9.41-2.35,5.15-4.15,10.43-3.55,16.23.55,5.28,4.49,8.79,9.18,8.38,2.64-.23,4.04-1.75,2.54-3.86-4.48-6.33-1.95-12.02,1.27-17.52,4.94-8.41,5.7-17.28,2.01-25.97-3.34-7.89-2.13-14.75,2.02-21.58,5.69-9.36,8.06-19.41,6.69-30.31.93-2.13.23-5.96,2.89-6.07,2.42-.09,1.63,3.8,2.78,5.69.08.14.2.26.3.39.13.97.26,1.94.39,2.92.19.77.38,1.55.58,2.32,0,1.09,0,2.17,0,3.26-.21.77-.41,1.55-.62,2.32-1.1,4.29-2.98,8.25-4.9,12.22-3.38,7.02-4.31,14.27-1.38,21.72,1.21,6.83,1.21,13.66.37,20.55-.25,2.05.28,4.26.77,6.32.66,2.76,2.72,4,5.49,4,2.78,0,3.57-2.17,3.99-4.26.9-4.39.46-8.81-.05-13.24-.77-6.7-3.3-12.95-4.73-19.47-1.17-5.4-1.56-10.8,2.02-15.46,5.18-6.71,5.9-14.27,4.91-22.27,0-1.87.51-3.78-.56-5.54,0,0,.33-.18.33-.18,0,0,0-.38,0-.38.19-1.13.15-2.38.61-3.38,3.77-8.22,1.8-15.34-3.89-21.88-1.97-2.25-1.47-4.98-.82-7.52.61-2.38,1.79-4.61,2.45-6.98.53-1.88,2.49-4.22-.28-5.68-2.78-1.47-5.09.08-6.84,2.31-2.51,3.18-3.48,7.05-4.6,10.84-1.4,4.73-2.09,9.68-4.22,14.18-1.54,3.25-4.35,5.53-7.39,2.72-4.05-3.75-6.75-1.68-9.82.81-1.79,1.45-3.55,2.95-5.38,4.35-1.02.78-2.2,1.97-3.52,1.12-1.46-.95-1.02-2.61-.68-4.06,1.47-6.38,6.16-10.32,10.81-14.3,4.22-3.61,9.56-5.1,14.27-7.75,2.66-1.5,6.37-3.54,4.72-7.06-1.8-3.84-5.48-1.33-8.27-.38-6.91,2.35-12.43,7.56-19.29,9.92-13.16,4.53-20.46,13.21-20.84,27.36-.22,8.05-4.22,13.28-11.96,15.6-8.56-.31-10-1.56-11.11-9.57-.13-.98-.35-1.94-.45-2.92-.23-2.47-1.85-3.22-3.78-2.37-3.42,1.51-6.4.43-9.45-.88-3.31-2.51-6.63-5.03-9.94-7.54-2.74-2.84-5.4-5.76-8.25-8.48-2.2-2.1-4.45-4.22-7.52-5.08-11.49-6.63-24.03-6.51-36.67-5.66-1.36,1.85-2.64,3.73-3.86,5.66,1.23-1.92,2.51-3.81,3.86-5.66-7.97.83-15.72,2.41-22.66,6.71-1.76.18-3.13,1.27-4.18,2.43-6.58,7.27-15,12.26-22.52,18.35-5.75,4.66-11.33,9.54-16.87,14.46-4.18,3.72-8.01,8.21-6.66,14.06,2.36,10.26-.69,18.66-7.67,25.7-11.41,11.5-13.4,25.87-13.51,40.97-.05.58-.1,1.16-.15,1.75-.63.97-.82,2.03-.67,3.16-.65,3.38-1.41,6.75-1.92,10.16-.86,5.84-.44,11.55,3.03,16.55,1.91,2.74,4.46,5.46,8.19,3.75,3.38-1.54,2.7-5.11,2.12-7.9-2.68-12.75-4.25-25.47-.69-38.31,2.52-6.79,4.82-13.85,10.39-18.8,8.07-7.16,10.93-15.57,10-26.41-1.24-14.49,10.36-29.79,28.08-28.63h0c3.54.85,4.17,2.97,3.18,6.29-.89,3-2.62,5.26-4.85,7.25-3.47,3.09-7.62,5.09-11.69,7.25-6.49,3.43-8.46,7.18-7.75,14.44.4,4.14,2.11,7.9,3.44,11.77.09,2.85-1.66,4.9-3.1,7.08-.28.29-.56.57-.83.86,0,0-.14.14-.14.14-6.87,5.55-14.73,10.28-16.96,19.78-.76,3.24-2.91,7.7,1.28,9.13,4.09,1.4,5.48-3.19,6.63-6.39,2.18-6.06,4.29-12.1,9.1-16.71,3.68-.17,2.93,2.53,2.6,4.46-.73,4.28-2.52,8.19-5.31,11.54-3.79,4.56-7.68,9.04-11.54,13.54-9.04,10.53-10.75,22.6-7.34,35.65.64,2.46,1.43,5.17,4.12,6.45,2.6,1.24,3.8-1.91,6.18-2.2.23,3.09.35,6.03,1.45,8.79.67,3.7,1.25,7.43,3.54,10.58,1.48,2.03,3.44,3.12,5.95,2.32,2.37-.76,2.29-2.89,2.35-4.89.14-5.1-2.33-9.43-4.02-14-.13-.98-.26-1.95-.39-2.93-.22-.99-.44-1.98-.67-2.96,0-3.29-.22-6.6.07-9.87.94-10.61,2.89-20.84,11.35-28.54,5.07-4.62,5.23-10.8,4.38-16.96-1.19-8.64-2.75-17.24-4.15-25.85-1.21-10.72,4.15-17.85,12.67-23.29,1.8-1.15,3.55-2.4,5.3-3.63,6.54-4.58,7.78-7.8,5.7-15.61-.95-3.56-1.58-7.08-.58-10.71,1.57-5.65,6.59-8.71,11.85-7.25,1.87,2.71,1.46,5.02-.75,7.48-3.21,3.58-6.28,7.46-5.11,12.76,1.37,6.19-.88,10.93-5.36,14.94-2.57,2.31-5.1,4.66-7.69,6.94-5.95,5.24-8.49,11.98-8.65,19.72-.13,6.28,1.12,12.43,2.13,18.59,1.38,8.43,1.13,16.67-2.81,24.55-2.94,5.87-6.2,11.63-8.05,17.96-1.9,6.5-2.98,13.11-.25,19.71.36.89.55,1.91,1.11,2.64,1.67,2.18,3.78,3.86,6.71,2.83,3.02-1.06,2.69-3.78,2.38-6.21-.4-3.07-1.01-6.11-1.53-9.16-1.31-5.77,1.17-10.88,3.45-15.72,6.37-13.51,9.17-27.14,6.05-42.18-1.76-8.49-1.15-17.49,4.41-25.17,5.62-7.76,13.28-14.13,15.9-24.63,2.61,3.63,2.22,6.72,1.63,9.74-1.03,5.29-3.76,9.77-6.94,14.06-4.96,6.69-9.04,13.84-9.47,22.43-.23,4.68,2.33,8.66,5.31,8.19,4.44-.71,3.72-4.72,3.46-7.51-.92-9.74,2.84-17.32,9.74-23.75,2.63-2.45,3.8-5.6,4.67-9.06,1.01-4.04-.54-8.02-.06-12.4,4.39,2.26,4.51,6.78,6.72,9.88,1.47,4.56.24,8.7-1.82,12.8-5.16,10.29-10.88,20.3-15.41,30.91-2.47,5.79-4.3,11.7-4.64,18-.26,4.85.4,9.54,3.04,13.76.95,1.51,2.26,2.43,4.13,2.05,1.73-.35,2.37-1.79,2.56-3.26.3-2.28.56-4.61.44-6.9-.87-16.68,2.19-31.83,14-44.84,6.59-7.25,6.57-16.5,2.52-25.49-.57-3.5-2.58-6.39-4.01-9.51-4.6-10.09-4.8-20.29-.46-30.44,1.12-2.61,2.81-5.41,6.75-3.86,3.87,1.52,2.71,4.25,1.9,6.97-2.03,6.87-3.06,13.84-1.97,21,1.06,8.15,5,15.58,5.94,23.76-.45,4.24.2,8.5-.85,12.76-2.38,9.57-6.4,18.55-9.64,27.8-3.49,9.99-6.5,20.04-5.28,30.83-.3,1.11-.07,2.11.61,3.02,0,0,0,0,0,0h0c.34,7.42,3.41,14.03,6.2,20.72,1.33,4.76,2.53,9.54,3.18,14.46.58,4.39.8,8.86,2.22,13.12.96,2.88,2.35,5.27,5.88,4.78,3.37-.47,5.31-2.57,5.55-5.98.15-2.13.25-4.32-.04-6.42-1.47-10.57-5.51-20.29-10.03-29.84-1.88-5.9-4.08-11.71-5.1-17.86.11-.33.09-.65-.06-.96-.02-2.64-.05-5.27-.07-7.91,1.02-10.09,4.95-19.28,8.53-28.62,4.31-11.23,7.34-22.71,4.65-34.91-1-8.24-2-16.49-3-24.73.32-5.38.45-10.8,2.86-15.78,1.58-3.27,3.64-5.92,7.92-4.96.38.35.77.69,1.15,1.04.2.28.4.56.59.84,2.1,4.27,1.45,8.12-1.31,11.97-3.17,4.42-4.13,9.66-4.05,14.97.08,5.57.62,11.13.96,16.69.96,0,1.93,0,2.89,0-.13-7.92-.5-15.86,1.87-23.57,1.76-5.73,4.51-10.66,10.9-12.34,1.32.01,2.64.02,3.96.04.64.11,1.28.22,1.92.33,3.84,2.15,7.23,4.77,9.27,8.8.24.33.48.67.72,1,0,.32.11.57.37.76,1.35,3.35,2.37,7.49,6.56,7.89,5.83.55,4.24,3.07,2.39,6.2-1.41,2.38-2.97,4.49-6.13,4.04-3.41-.48-4.29-3.24-5.01-6-.45-1.7.37-3.67-1.04-5.19-1.5-3.03-3.51-2.52-5.4-.56-1.25,1.29-2.67,2.53-4.18,1.36-4.21-3.25-7.36-1.34-10.18,1.8-2.93,3.25-3.26,8.97-1.13,12.45,1.06,1.73,2.61,2.57,4.49,2.46,1.99-.11,2.55-1.89,3-3.47.31-1.09.33-2.26.49-3.39.77-5.52,1.72-5.99,6.78-3.31,1.12,2.59.15,4.8-1.28,6.93-2.2,3.28-4.61,6.45-6.54,9.89-5.87,10.45-6.77,21.53-3.4,32.93.75,2.53,2.33,5.29,5.6,4.35,2.89-.83,2.24-3.81,1.89-5.97-.74-4.54-2.04-8.99-2.74-13.54-.57-3.69-1.86-7.86.82-10.98,2.41-2.79,4.51-5.48,5.6-9.05.54-1.76,2.05-3.03,4.2-2.76,2.22.28,2.92,2.02,3.23,3.85.73,4.32-.13,8.58-3.37,11.4-8.48,7.37-6.25,10.17-.25,15.94.45.43.82.95,1.23,1.43,2.4,3.35,1.32,6.67-.41,9.75-2.49,4.45-5.34,8.69-7.93,13.09-5.75,9.78-5.72,19.68-.35,29.61,3.55,6.56,8.16,12.35,13.09,17.91,5.45,6.14,10.97,12.24,14.33,19.89,1.89,6.65.62,12.98-1.81,19.26-2.07,5.36-4.15,10.75-4.38,16.61ZM261.49,231.4c-.29.02-.55.1-.78.22.23-.12.49-.2.78-.22ZM257.66,235.36c.12-.07.23-.16.33-.25-.1.09-.21.18-.33.25,0,0,0,0,0,0ZM267.1,154.86c7.66-4.19,10.65-10.98,11.86-18.91.44-2.89,0-5.92-.14-8.88-.2-3.99-.09-7.93,1.55-11.65.51-1.16,1.15-2.67,2.82-2.02,1.29.5,1.16,1.93.91,3.05-.88,3.91-.1,7.53,1.76,10.97.64,1.18,1.66,2.28,3.12,2,1.49-.28,1.92-1.75,2.13-3.05.73-4.56-1-8.79-1.95-13.12-.41-1.89-1.24-3.8.74-5.45,1.33-1.11,2.67-2.21,4.41-1.47,2.01.85.96,2.5.56,3.84-.67,2.24.22,4.27.91,6.25,1.8,5.11,1.1,9.71-2.21,13.98-2.22,2.87-4.28,5.87-6.59,8.67-6.49,7.88-8.39,17.02-7.57,26.91.12,1.45.47,3,1.17,4.25,1.54,2.74,3.56,2.78,5.4.26,1.76-2.41,1.72-5.3,1.57-8.1-.18-3.29-.72-6.57-.86-9.86-.29-6.88,3.41-11.88,8.15-16.25,4.2-3.86,6.71-8.24,6.75-14.23.03-6.13,1.99-12.01,4.13-17.75.51-1.38,1.04-2.97,2.8-3.14,1.71-.17,2.04,1.34,2.5,2.57,1.32,3.58,3.9,1.34,5.87,1.12,4.57-.5,5.52.55,4.37,4.72-.62,2.23-1.54,2.72-3.45,1.61-4.17-2.43-5.38-.02-5.51,3.56-.33,8.7-3.8,16.21-9.7,22.21-8.27,8.41-8.53,17.62-4.52,27.77.09,2.76.43,5.55.2,8.29-.42,5.08-2.58,9.05-7.94,10.48-4.85.1-9.11-1.29-12.52-4.88-1.8-1.9-2.71-3.83-1.91-6.68,1.18-4.18-.02-5.2-4.13-4.05-1.42.4-2.77,1.05-4.18,1.51-1.41.46-2.47.11-3.35-1.24-3.51-5.36-2.84-10.19,2.85-13.3ZM128.14,197.65c-2.48,3.69-4.8,7.56-7.77,10.83-8.24,9.08-11.36,19.84-11.34,31.79,0,.65-.11,1.3-.2,1.95-.01.08-.19.14-.29.21-7.54-16.05-5.41-25.71,8.3-37,3.3-2.72,5.35-6.2,7.12-9.96.6-1.27,1.16-3.07,3.19-2.03,1.84.94,2.04,2.62.99,4.2Z"/>
  <path class="cls-1" d="M336.83,440.97c1.06,1.95-.49,3.44-1.08,4.99-2.82,7.4-3.64,14.97-2.44,22.77.16.44.33.88.49,1.32,0,.47,0,.93,0,1.4-.07.14-.21.29-.18.4.06.28.19.55.3.82-.03.16-.04.33-.03.49.01.16.04.32.1.48-.26,3.26-2.51,5.56-3.87,8.3-1,2.01-1.98,4.65.28,6.3,2.44,1.78,4.68.06,6.48-1.69,1.78-1.74,2.68-3.54,2.98-5.4.1-.62.14-1.24.12-1.86-.03-.94-.17-1.89-.41-2.84-.1-.42-.23-.84-.36-1.26-.37-1.17-.83-2.36-1.33-3.54-.11-1.32-.21-2.63-.32-3.95.07-.37.13-.75.15-1.11.07-1.1-.1-2.18-.69-3.2,0-.77,0-1.53,0-2.3.07-.14.23-.31.2-.42-.04-.15-.09-.29-.16-.43-.06-.14-.13-.28-.2-.42.13-1.03.27-2.06.41-3.09.14-1.03.3-2.05.48-3.06.18-1.01.38-2.02.62-3.01,1.19-4.95,3.24-9.54,7.63-13.19-3.34,9.49-6.99,18.86-5,29.21.42,3.88,1.86,7.26,4.99,9.74,2.11,1.67,4.29,1.48,6.26-.22,1.99-1.73.93-3.54-.15-5.25-1.75-2.75-3.53-5.48-5.29-8.22,0-.15,0-.3-.04-.44-.04-.18-.09-.35-.19-.51-.22-.51-.43-1.02-.65-1.53-.6-4.97.25-9.7,2.15-14.05.63-1.45,1.38-2.86,2.22-4.22,3.24-5.21,3.29-9.9,1.21-14.44-.69-1.51-1.62-3.01-2.74-4.51-.21-.44-.39-.91-.59-1.36-.2-.45-.41-.89-.68-1.29-5.96-8.65-6.39-17.34-.32-26.13.21-.3.1-.83.14-1.27-7.16.13-8.48,1.06-9.33,7.4-.86,6.41-.94,12.77,2.39,18.71.94,1.68,1.63,3.43,2.06,5.25.43,1.82.6,3.71.52,5.64-1.84,3.77-2.36,8.28-6.12,10.97h0s0,0,0,0Z"/>
  <path class="cls-1" d="M585.3,318.09c-.36,6.4,2.05,10.08,5.57,10,3.51-.07,6.14-4.07,5.75-10.01-.76-11.58,1.87-22.54,5.23-33.43.47-1.51,1.47-2.96-.15-5.71-8.44,12.38-15.58,24.47-16.41,39.15Z"/>
  <path class="cls-1" d="M222.64,353.19c-2.7-3.9-4.81-8.06-6.62-12.33-.6-1.42-1.18-2.86-1.73-4.31-.55-1.45-1.08-2.9-1.61-4.36-.65-1.81-1.28-3.62-1.92-5.43-.32-.91-.65-1.82-.97-2.72-.26-.71-.52-1.42-.78-2.12-.35-.95-.71-1.89-1.08-2.83-.57-2.25-1.09-4.5-1.52-6.76-.25-1.35-.48-2.69-.65-4.04-.78-6.01-.69-12.06,1.17-18.19.9-2.97,1.24-6.12,1.71-9.2.5-3.25.95-6.54-.3-9.74-.47-1.22-.92-2.78-2.57-2.48-1.31.24-1.5,1.73-1.39,2.84.47,4.7-2.31,6.37-6.29,7.23-2.54.54-4.9,1.98-5.23,4.66-.86,6.81-2.39,13.62-1.47,20.55.21,1.62.94,3.22,3.03,3.37,2.22.16,3.21-1.12,3.83-3.06,1.09-3.38.65-6.86.9-10.29.19-2.54,0-6.65,2.84-6.39,2.36.22.85,4.08.36,6.29-2.62,11.69-3.29,23.37-.23,35.08,1.02,9.22,4.61,17.39,10.21,24.7,1.71,2.24,3.8,4.17,6.84,4.43,3.41.3,5.39-2.16,3.49-4.9Z"/>
  <path class="cls-1" d="M588.82,269.94c-1.36-3.14-2.93-6.19-4.42-9.28-2.57-4.34-5.13-8.68-7.7-13.03.21-.96.42-1.92.63-2.88.6-2.61,1.53-5.17,1.39-7.91,1.6-3.94,1.02-7.66-1-11.31-1.73-3.14-3.29-6.37-4.92-9.56-.82-7.01-1.59-14.04-2.52-21.04-.18-1.33-.42-3.35-2.42-3.13-1.8.19-1.94,2.01-2.03,3.49-.1,1.48-.1,2.96-.09,4.44.02,4.28.38,8.59.03,12.83-.37,4.37-2.66,7.97-7.04,9.23-4.14,1.18-7.28-.99-9.74-4.28-.59-.8-.66-2.35-2.6-1.95-.8,5.02-4.49,9.79-2.58,15.1,1.91,5.32,1.78,10.28-.35,15.28-2.13,4.99-4.51,9.87-6.75,14.82-3.97,8.79-4.91,17.66-.62,26.65,3.4,11.31.59,21.29-6.31,30.52-1.86,2.48-3.05,5.41-3.83,8.49-.85,3.39-.59,6.27,2.88,7.95,3.57,1.73,5.81-.62,7.32-3.17,6.52-10.99,9.27-22.86,6.26-35.44-1.06-4.42-2.28-8.74-2.59-13.28-.05-6.86-1.49-14.08,2.85-20.1,3.3-4.58,5.1-9.39,5.79-14.91.38-3.01.55-6.41,3.67-9.04v13.2c-.8,3.52-1.44,7.11-3.56,10.14-5.45,7.76-5.28,15.62-.57,23.6,2.18,7.9,2.92,15.78.2,23.76-.56,1.63-.42,3.61-.19,5.38.45,3.54,3.24,4.67,6.01,2.41,2.7-2.2,3.7-5.34,3.94-8.72.35-5.13-.18-10.11-1.76-15.07-1.33-4.17-3.35-8.18-3.47-12.68-.27-3.57-1.08-7.52.81-10.55,4.42-7.06,3.37-14.68,3.36-22.25.05-.42.1-.84.15-1.27,0-1.22,0-2.44.01-3.66.77-6.83,3.97-12.17,9.79-15.9,0,0,.03.02.03.02.08.99.16,1.98.23,2.97.1-.13.19-.26.26-.39-.08.13-.16.26-.26.39-.89,1.73-1.59,3.59-2.72,5.15-4.46,6.15-4.15,12.34-.52,18.67.12.65.24,1.31.35,1.96.18.42.36.84.54,1.26.46,4.2-1.37,7.66-3.49,11.06-2,3.2-4.1,6.38-4.53,10.29-.2,1.82-.55,3.83,1.31,4.9,1.74,1,3.5.16,5.12-.8,6.46-3.83,10.4-12.44,9.09-19.95-.42-2.42-.95-4.82-1.65-8.37,4.34,4.3,6.84,8.3,9.14,12.44.11.81.14,1.65.34,2.44,1.63,6.57.61,12.05-5.82,15.73-1.65.94-3.1,2.53-4.16,4.14-1.61,2.44-2.5,5.37.06,7.66,2.56,2.3,5.27,1.09,7.58-.83,5.18-4.32,8.82-9.85,11.39-15.97,1.28-3.05,1.04-6.53-.32-9.67ZM574.07,235.87c-1.44,4.56-2.88,9.12-4.31,13.68-2.4-1.72-2.5-4.31-1.76-6.62,1.27-3.98,3.09-7.78,4.89-12.16,1.46,1.93.81,3.62,1.19,5.09.62-.61,1.12-1.51,1.82-2-.7.49-1.2,1.39-1.82,2Z"/>
  <path class="cls-1" d="M412.16,342.36c-.05-5.55-1.61-10.76-3.26-15.94-.99-3.11-2.01-6.22-2.76-9.38-.04-1.78-.2-3.55-.36-5.33-.26-2.96-.49-5.92-.06-8.95,1.04-7.26,3.5-13.99,6.09-20.78,3.81-9.98,2.96-15.67-5.48-22.11-2.71-2.07-6.01-3.35-9.05-4.99-3.65-1.38-5.94-3.73-7.42-6.7-.89-1.78-1.49-3.79-1.92-5.94-.64-3.18-1.69-6.32-4.48-8.43-5.34-5.03-12.32-8.31-16.06-15.06-.46-.83-1.7-1.07-1.99-.3-.84,2.25-3.1,4.08-2.67,6.61.41,2.43,2.8,1.63,4.48,1.91.57.1,1.08.57,1.93,1.05-1.32.99-3.54,1-3,2.96.44,1.6,2.05,1.99,3.56,2.15,4.13.44,7.43,2.31,9.95,5.59,1.96,4.25,4.02,8.46,5.85,12.76.38.9.77,1.79,1.19,2.65.42.86.87,1.7,1.39,2.49.52.79,1.09,1.53,1.76,2.21.02.02.04.03.06.05.66.66,1.39,1.25,2.25,1.77,1.1,1.08,2.39,1.79,3.74,2.39.69.31,1.4.59,2.11.86,1.26.49,2.51.97,3.68,1.64,5.38,3.1,6.76,5.74,5.02,11.75-1.45,5.02-3.35,9.92-5.11,14.86-4.01,11.27-5.88,22.79-4.25,34.75-.16,6.35,1.15,12.41,3.92,18.09,1.5,3.08,3.28,7.12,7.28,6.17,4.04-.97,3.65-5.38,3.62-8.81Z"/>
  <path class="cls-1" d="M419.35,305.65c-1.38-6.67.42-12.54,2.55-18.73,2.83-8.25,4.8-16.82,1.29-25.51-2.51-8.07-8.22-12.88-15.96-15.59-6.65-1.91-12.02-5.4-14.83-12.04-1.31.66-2.62,1.32-3.94,1.98,2.61,6.98,6.37,12.98,13.66,15.95.4.25.79.49,1.19.74.25.22.54.35.87.39,5.03,3.5,11.61,5.13,14.12,11.68,1.41,4.52,1.25,9.12.38,13.68-1.23,6.48-3.15,12.77-5.44,18.95-1.02,2.78-2.15,5.56-2.02,8.6.14,3.45.01,8.07,4.5,7.87,4.08-.18,4.28-4.85,3.63-7.97Z"/>
  <path class="cls-1" d="M379.47,134.74s.03.04.05.05c-.01-.04-.02-.07-.03-.11,0,0-.01,0-.02,0,0,.02,0,.04,0,.06Z"/>
  <path class="cls-1" d="M239.77,357.23c1.5-1,1.1-2.64,1.06-4.08-.1-3.79-1.84-6.99-4.04-9.89-3.46-4.54-7.13-8.93-10.71-13.38-1.02-1.45-2-2.92-2.9-4.41-3.92-6.46-6.53-13.37-5.82-21.4.89-5.84,2-11.64,3.52-17.33.51-1.9,1.06-3.78,1.67-5.66,3.07-9.48,2.38-18.73-1-27.96-.41-1.12-.86-2.23-1.32-3.33-1.54-3.6-3.35-7.06-5.23-10.48-2.13-3.86-4.36-7.68-6.44-11.57-.55-2.16-1.39-4.3-1.54-6.55-.09-1.35.07-2.73.68-4.18,2.99,1.64,1.65,5.02,3.53,6.8.48,2.64,1.79,4.94,3.23,7.1,4.36,6.55,8.78,13.06,13.36,19.46,4.11,5.74,5.02,11.86,3.41,18.66-1.28,5.4-2.09,10.92-3.11,16.38-.1,1.25-.2,2.5-.31,3.74-.16.24-.29.48-.4.73-.22.49-.34,1.01-.34,1.55,0,.27.02.55.07.83-.04,2.56-.18,5.12-.26,7.68-.08,2.56-.1,5.11.12,7.65.64,7.43,2.15,14.74,7.1,20.75,1.14,1.39,2.52,2.78,4.63,2.11,2.21-.7,2.91-2.52,3.03-4.63.26-4.4-1.06-8.47-2.69-12.46-1.66-4.06-3.34-8.11-4.49-12.25-.99-3.55-1.6-7.17-1.49-10.93.06-1.88.29-3.78.75-5.73.91-2.81,1.72-5.66,2.38-8.53.66-2.87,1.16-5.78,1.46-8.7,1.1-10.69-.97-20.68-8.69-28.66-.73-.75-1.43-1.51-2.12-2.28-3.11-3.49-5.8-7.22-7.95-11.28-.86-1.63-1.63-3.32-2.31-5.07-.24-.63-.49-1.26-.71-1.91-.31-.74-.52-1.48-.67-2.21-.13-.59-.22-1.19-.26-1.78-.04-.57-.06-1.13-.03-1.69.13-2.8,1-5.55,1.79-8.35.79-2.8,1.51-5.64,1.35-8.61-8.15,7.05-12.89,5.68-16.51-4.28-.56-1.54-.94-3.15-1.55-4.68-.57-1.45-.77-3.82-2.66-3.6-1.84.21-1.79,2.64-1.94,4.13-.51,5.19-1.85,9.94-5.25,14.07-.98,1.19-1.42,2.99-1.69,4.58-.64,3.79,1.67,6.11,4.82,7.03,3.28.95,3.24-2.41,4.1-4.33.73-1.65,1.21-3.41,1.9-5.07.3-.72.77-1.58,1.76-1.37,1.04.22,1.09,1.21.96,1.98-.42,2.42-1.05,4.81-1.44,7.23-1.15,7.18-1.9,14.34,2.36,20.92.74,3.61,2.74,6.69,4.37,9.89,6.73,13.17,9.14,26.98,7.13,41.68-.22,1.63-.45,3.26-.66,4.89-.42,3.27-.77,6.55-.84,9.84-.03,1.65,0,3.3.15,4.96-.07,1.43-.09,2.86-.07,4.27.12,7.31,1.48,14.35,3.94,21.17.87,2.41,1.86,4.8,3.01,7.16.49,1.12.95,2.27,1.42,3.4.48,1.13.98,2.25,1.57,3.31,3.06,5.51,6.71,10.58,12.2,13.97,1.35.83,2.9,1.84,4.58.71Z"/>
  <path class="cls-1" d="M573.62,308.15c-1.19-.05-1.45,1.16-1.73,2.07-1.68,5.38-4.64,10.11-7.38,14.96-2.11,3.73-3.89,7.62-4.04,12.01-.06,1.78-.26,3.83,1.93,4.59,1.95.68,3.89.41,5.56-.97,1.84-1.52,2.89-3.58,3.72-5.72,2.39-6.18,3.38-12.64,3.58-19.86-.07-1.19-.12-2.99-.32-4.79-.1-.9.03-2.23-1.31-2.29Z"/>
  <path class="cls-1" d="M161.98,335.33c-.43-1.91-.86-3.89-1.71-5.63-2.45-5.01-5.02-9.97-7.73-14.84-1.22-2.19-1.21-6.71-3.47-6.24-3.08.64-1.07,4.78-1.52,6.47,0,2.19-.15,3.52.03,4.81.91,6.67,1.71,13.39,5.64,19.16,1.65,2.42,4.03,3.68,6.8,2.62,2.95-1.14,2.52-3.9,1.96-6.35Z"/>
  <path class="cls-1" d="M367.03,584.43c-1.03-3.02-1.4-6.15-1.44-9.35h0c-.04-2.67.15-5.39.37-8.12,2.19-6.3,1.01-11.71-1.64-16.86-1.21-2.34-2.72-4.63-4.36-6.93-1.82,2.71-1,5.15-.6,7.51.79,4.66-.18,8.89-3.13,12.53-3.05,3.75-7.41,3.58-10.41-.16-2.86-3.57-4.26-7.71-5.19-12.13-.35-1.67.1-3.99-2.79-5.1.42,7.68.31,15.3,5.24,20.98,3.21,3.7,6.4,6.67,5.98,12.02-.13,1.61,1.15,3.23,3.02,3.43,1.88.2,3.04-1.14,3.61-2.78.49-1.38.67-2.87,1.01-4.3.55-2.31.73-4.83,3.2-6.33,1.15,1.32.71,2.71.96,3.94-.33,2.11-.83,4.2-.97,6.32-.4,6.03-1.36,12.18,1.9,17.8,1.72,2.97,4.16,4.97,7.68,2.86,3.25-1.95,3.94-5.4,1.69-8.05-1.97-2.32-3.29-4.75-4.14-7.27Z"/>
  <path class="cls-1" d="M512.6,141.72c-.97,9.31-3.21,18.39-4.25,27.66-.19.17-.19.34-.01.51-.15.38-.31.76-.46,1.14-.48,2.24-1.25,4.47-1.38,6.73-.23,3.74-1.6,7.42-.57,11.26.6,2.2,1.38,4.16,3.95,4.41,2.37.23,3.65-1.39,4.37-3.31.86-2.29,1.58-4.66,2.07-7.06,1.49-7.21.66-14.4-.44-21.57-1.19-10.82.29-21.55.99-32.31.36-5.54.73-11.07-1.44-16.37-1.32.68-2.63,1.36-3.95,2.04,1.84,8.9,2.06,17.8,1.12,26.87Z"/>
  <path class="cls-1" d="M466.43,391.65c-.66-3.69-1.33-7.37-1.98-11.06-.13-.74-.25-1.47-.38-2.21-.43-2.5-.85-5.01-1.32-7.51-1.96-10.35-2.29-20.95-4.95-31.19-1.21-4.66-3.19-8.67-8.31-10.15-4.95-1.43-6.35-4.9-5.18-9.57,1.27-5.04-.21-8.38-5.4-9.77-2.3-3.05-1.98-6.46-1.39-9.93.33-1.97.06-5.29-1.64-4.78-3.26.98-5.55-.31-8.21-1.16-.82-.26-2.12.31-2.04.93.55,4.43-4.26,7.42-3.23,11.77,1.18,5.01-.31,9.18-3.58,12.69-3.39,3.64-3.43,7.63-2.09,11.91.62,2,1.22,4.67,3.56,4.89,2.66.26,2.89-2.68,3.74-4.51.2-.42.4-.85.6-1.26.2-.41.41-.82.63-1.2.11-.19.22-.38.34-.56,1.29-2,3.04-3.33,6.29-2.61-.52,3.49-2,6.65-3.78,9.6-3.7,6.13-2.55,11.76,1.68,16.89,3.66,4.44,5.65,9.56,7.61,14.84,2.53,6.8,1.33,14.02,3.09,20.94,2.3,9.07,4.59,18.18,5.58,27.54,0,.33.01.66.02.99.07.65.15,1.3.22,1.96,0,.68,0,1.36,0,2.05-.06,1.64-.12,3.27-.18,4.91-.03.74-.09,1.48-.13,2.22-.04.74-.06,1.48,0,2.21.26,3.31,1.55,4.61,4.59,1.57.62,4.81-.24,9.31,1.02,13.63.38,1.33.05,3.45,1.98,3.4,1.65-.04,1.96-1.97,2.33-3.4.29-1.11.62-2.24.69-3.38.17-2.81.2-5.6.1-8.38-.09-2.65-.3-5.29-.61-7.92-.18-1.5-.38-3-.62-4.5-.66-4.11-1.55-8.2-2.63-12.26.03-.68-.02-1.34-.12-1.98-.07-.47-.18-.93-.3-1.39-.16-.6-.36-1.18-.57-1.76-.37-.98-.79-1.94-1.19-2.89-4.07-9.91-5.63-20.33-4.78-30.82.79-9.79-2.13-17.28-9.54-23.51-3.86-3.24-4.31-8.73-1.14-13.12,1,5.17,2.24,9.75,6.42,12.69,5.63,3.96,7.71,9.6,7.48,16.29-.18,5.1.13,10.13.75,15.11.23,1.86.51,3.71.81,5.55.06.35.12.7.18,1.04,1.5,8.69,3.69,17.26,5.6,25.89.05.35.11.7.16,1.05.15.93.29,1.87.44,2.8,0,0,0,0,0,0,.25,1,.49,2,.74,3.01.57,5.26,1.35,10.51,1.89,15.77.27,2.63.48,5.27.57,7.91.09,2.64.06,5.3-.15,7.96-.12.91-.28,1.81-.44,2.71-.07.4-.15.81-.23,1.21-.33,1.62-.71,3.21-1.15,4.8-.14.52-.29,1.04-.45,1.56-.54,1.82-1.14,3.63-1.8,5.42-1.12,3.04-2.38,6.05-3.69,9.03-1.78,4.04-3.55,8.16-3.45,12.74.03,1.15-.07,2.43,1.21,2.99,1.55.68,2.46-.47,3.27-1.5.71-.9,1.35-1.87,1.86-2.9,5.17-10.38,7.85-21.4,8.57-32.94.19-.93.33-1.85.43-2.78.28-2.78.12-5.56-.45-8.33.04-.15.06-.3.04-.45-.01-.15-.05-.29-.12-.43.65-8.81-2.14-17.2-3.09-25.81.08-.57.05-1.1-.08-1.61-.13-.51-.37-.99-.7-1.45.07-.3.04-.59-.09-.87-.08-.73-.14-1.47-.22-2.2-.07-.73-.16-1.46-.29-2.19-1.82-10.05-3.95-20.08-4.24-30.31-.33-11.96-.96-23.74-8.08-34.08-1.02-1.49-1.73-3.62.29-4.83,2.03-1.2,3.42.53,4.38,2.05,2.23,3.52,3.25,7.53,4.26,11.53,2.61,10.3,2.75,20.87,3.4,31.38-.11,1.28-.3,2.57-.2,3.83.06.76.22,1.52.56,2.26-.19.63-.31,1.25-.3,1.87.01.62.15,1.23.5,1.83-.07,3.39.16,6.74.67,10.05.51,3.31,1.28,6.57,2.31,9.79.48,1.52,1.11,3.36,3.23,3.09,2.07-.26,2.37-2.21,2.47-3.77.17-2.6.21-5.27-.19-7.84-.58-3.7-1.21-7.39-1.87-11.08Z"/>
  <path class="cls-1" d="M322.95,195.62c.05,6.48-1.31,12.62-3.78,18.64-1.08,2.62.21,5.6,3.24,6.2,3.15.63,3.31-2.29,3.79-4.54,1.01-4.78,1.49-9.8,6.62-12.48,1.46-.76,1.85-3.19.91-3.89-2.91-2.14-6.24-3.71-10.1-5.89-.28.03-.68.89-.67,1.95Z"/>
  <path class="cls-1" d="M631.45,255.59c-1.24-.17-1.53,1.14-1.77,2-1.07,3.8-1.66,7.68-1.42,11.12.01,3.49-.14,6.43.73,9.33.7,2.32.81,5.45,4.03,5.24,3.39-.22,4.23-3.21,4.43-6.15.48-7.07-1.83-13.56-4.35-19.98-.26-.66-1.03-1.47-1.65-1.55Z"/>
  <path class="cls-1" d="M361.78,611.5c-.8-1.61-1.61-3.28-2.74-4.66-2.46-3.03-4.06-6.41-4.66-10.23-.38-2.43-.49-4.91-.72-7.37-.08-.84-.2-1.84-1.07-2.06-1.26-.32-1.54.86-1.92,1.74-1.2,2.8-1.24,5.78-1.36,9.71.32,5.58,1.5,11.83,5.89,17.02,1.57,1.85,3.65,2.51,5.72,1.17,2-1.29,1.8-3.4.85-5.32Z"/>
  <path class="cls-1" d="M485.32,369.48c-5.13,4.55-6.99,10.34-7.65,16.57-.42,3.93-.44,7.91,1.32,11.61.72,1.51,1.7,2.89,3.72,2.68,1.94-.2,2.84-1.56,3.23-3.25.3-1.26.54-2.61.41-3.88-.75-7.82-4.64-15.5-1.03-23.74Z"/>
  <path class="cls-1" d="M236.92,368.94c0,1.2-.3,2.15.05,2.71,2.98,4.87,1.64,9.86.47,14.81-.73,3.06-1.18,6.13-.95,9.26.16,2.25.84,4.39,3.52,4.61,2.42.2,3.47-1.71,4.05-3.63,2.03-6.71,1.29-13.31-1.25-19.74-1.18-2.99-2.2-6.15-5.87-8.02Z"/>
  <path class="cls-1" d="M119.97,279.87c1.04,4.57,2.27,9.08,3.38,13.6,1.11,4.52,2.09,9.06,2.64,13.69.1.67.15,1.34.18,2.01.05,1.35-.02,2.7-.11,4.05-.22,3.38-.54,6.76.68,10.06.94,2.54,2.18,4.96,5.49,4.73,3.06-.22,3.92-2.65,4.57-5.08,1.89-7.08-.15-13.59-3.03-19.97-3.17-8.5-6.52-16.89-13.79-23.1Z"/>
  <path class="cls-1" d="M529.99,304.03c.2-2.89.28-5.77.14-8.63-.05-1.06-.14-2.12-.25-3.18-.39-3.68-1.18-7.31-2.56-10.87-.35-.33-.67-.76-1-1.14-.34-.37-.69-.69-1.09-.8-4.86-1.33-9.24-2.9-8.43-9.35.08-.67-.43-1.65-1.53-1.54-.91.09-1.41.74-1.81,1.49-1.82,3.43-1.54,7.11-.8,10.64.72,3.4,1.32,6.81,1.79,10.23.78,5.7,1.19,11.44,1.1,17.23-.62,3.35-1.39,6.65-2.25,9.92-.27,1.03-.56,2.06-.86,3.08-.91,3.15-1.91,6.28-3.04,9.35-2.66,7.23-5.9,14.24-9.67,21.06-1.06,1.92-2.65,3.83-.59,5.73,1.8,1.65,4.08,1,6-.15,3.83-2.29,6.18-5.93,8.12-9.77,7.54-14.93,9.47-30.7,6.78-47.11-.57-3.38-1.22-6.75-1.68-10.15-.35-2.54.5-3.55,2.91-1.77,1.82,5.08.21,10.54,1.73,15.68.56,1.89,1.31,3.39,3.55,3.49,2.4.1,3.33-1.65,3.45-3.45Z"/>
  <path class="cls-1" d="M420.44,400.82c.44,1.88,1.58,4.05,3.89,3.87,2.46-.19,2.66-2.59,2.89-4.55.95-8.05-1.05-15.26-6.78-21.6-.95,7.43-1.75,14.88-.01,22.28Z"/>
  <path class="cls-1" d="M301.82,401.93c2.73-7.8.92-15.71.62-23.64-6.31,6.86-8.51,14.73-6.83,23.62.26,1.36.81,3.09,2.69,3.09,1.92,0,2.99-1.55,3.52-3.07Z"/>
  <path class="cls-1" d="M404.38,362.6c.82-5.14-1.64-8.44-6.04-10.52-2.52-1.19-4.86-2.58-6.82-4.57-1.21-2.88-2.07-5.77-2.08-8.74,0-1.78.29-3.6,1.01-5.47,1.96-5.15-.32-8.08-5.42-9.4-4.87-1.27-6.96-4.54-6.58-9.57.17-2.29.05-4.62-.15-6.91-.06-.7-.69-1.47-1.28-1.94-.2-.16-1.18.34-1.58.76-3.72,3.82-3.24,17.41,1.41,20.12,5.05,2.93,6.33,7.17,6.99,12.19.61,4.73,1.27,9.45,1.91,14.17h0c.14.75.29,1.42.46,2.03,0,0,0,.02,0,.03.06.23.14.45.21.67.02.07.04.15.07.21.86,2.49,2.15,3.63,4.33,3.59.97-.02,2.12-.27,3.49-.74,4.53-1.57,6.06-.16,6.17,4.14-.65,6.68-1.58,13.34-1.8,20.03-.09,2.61-.2,6.98,3.82,6.8,4.26-.19,3.87-4.6,3.46-7.38-.95-6.48-1.5-12.95-1.56-19.49Z"/>
  <path class="cls-1" d="M344.67,577.09c.33-1.08.08-2.67-1.18-2.92-1.8-.36-1.96,1.51-2.23,2.64-1.08,4.48-1.7,9.04-1.91,14.85.15.94.33,3.08.87,5.12.4,1.5,1.55,2.64,3.28,2.43,1.76-.21,2.41-1.52,2.4-3.19,0-.99.08-2.01-.14-2.95-1.28-5.27-2.79-10.49-1.09-15.99Z"/>
  <path class="cls-1" d="M552.86,366.79c-.03,2.49.03,5.48,3.03,5.95,3.11.5,4-2.56,4.59-4.84,1.3-5.01.23-9.95-1.26-16.25-3,5.73-6.29,9.76-6.36,15.14Z"/>
  <path class="cls-1" d="M219.22,368.79c-1.47,5.81-2.19,10.48-1.22,15.2.51,2.5,1.27,5.87,4.57,5.31,3.41-.58,3.43-4.07,3.06-6.82-.64-4.77-3.26-8.71-6.41-13.69Z"/>
  <path class="cls-1" d="M497.03,384.25c.08,2.11.29,4.6,2.88,5.15,2.76.58,3.63-1.85,4.37-3.8,2.04-5.34.44-10.52-1.06-15.7-3.16,4.51-6.42,8.76-6.2,14.36Z"/>
  <path class="cls-1" d="M162.62,368.9c.69,1.8,1.42,4.06,3.96,3.74,2.75-.36,3.03-2.81,3.12-4.94.25-5.62-2.94-9.92-6.33-15.59-1.23,6.49-2.74,11.58-.75,16.79Z"/>
  <path class="cls-1" d="M532.02,355.5c.11,2.26.66,4.58,3.09,4.98,2.3.38,3.27-1.85,3.99-3.68,2.1-5.33.63-10.54-.64-17.22-3.54,5.75-6.72,10.12-6.44,15.92Z"/>
  <path class="cls-1" d="M373.36,184.09c1.85-2.55,1.8-5.59,1.56-8.58-.25-3.1-1.73-5.93-4.91-5.83-3.59.11-2.9,3.7-3.41,6.83.45,1.98.78,4.63,1.69,7.07,1.18,3.17,3.25,3.02,5.07.51Z"/>
  <path class="cls-1" d="M183.3,356.06c.8,2.14,1.69,4.85,4.49,4.29,2.66-.53,2.87-3.3,2.84-5.64-.07-5.32-2.89-9.49-6.3-13.56-1.01,5.02-2.92,9.86-1.04,14.91Z"/>
  <path class="cls-1" d="M469.39,425.84c1.82,9.74,2.73,18.78,1.24,27.96,6.53-7.39,5.95-21.92-1.24-27.96Z"/>
  <path class="cls-1" d="M253.47,453.8c-1.77-9.2-.18-18.32,1.27-28.51-7.18,7.24-7.64,21.06-1.27,28.51Z"/>
  <path class="cls-1" d="M205.99,155.36c-.71,2.31-.8,4.68-.68,7.07-.06.99-.11,1.99-.17,2.98-.28,1.79-.72,3.57-.82,5.36-.37,6.29.04,12.52,2.36,18.46.84,2.15,1.87,4.5,4.79,4.19,3.14-.33,3.6-2.98,4.09-5.44.16-.8.25-1.65.16-2.46-.96-8.49-2.14-16.94-4.42-25.2-1.05-7.24-2.1-14.47-3.15-21.71-.96,0-1.93,0-2.89,0,.25,5.57.49,11.15.74,16.72Z"/>
  <path class="cls-1" d="M360,625.55c-1.66.66-1.22,2.48-1.33,4.13.21,3.09.97,6.27,2.45,9.23.49.97,1.06,2.21,2.48,2.01,1.26-.18,1.88-1.25,2.3-2.34,1.6-4.17-.1-7.68-2.37-11-.81-1.18-1.85-2.7-3.53-2.04Z"/>
  <path class="cls-1" d="M300.28,436.69c.19,1.14.73,2.28,2.09,2.43,1.63.17,2.41-1.05,2.72-2.33,1.34-5.62.09-10.79-2.87-16.77-2.79,6.1-2.81,11.35-1.94,16.68Z"/>
  <path class="cls-1" d="M408.31,425.08c.16,1.33.58,2.77,2.16,2.94,1.93.2,2.42-1.41,2.79-2.86,1.36-5.27-.46-9.94-3-14.55-2.47,4.69-2.54,9.55-1.96,14.47Z"/>
  <path class="cls-1" d="M384.55,631.01c-.77-2.63-1.23-6.56-4.33-6.25-2.81.28-1.17,4.19-1.77,5.98,0,1.26-.08,2.1.02,2.91.25,2.19-.24,5.37,3.09,5.09,3.05-.25,3.37-3.17,3.28-5.78-.02-.66-.11-1.33-.29-1.95Z"/>
  <path class="cls-1" d="M323.63,238.09c1.82-2.82,1.55-5.94,1.33-9.04-.08-1.09.03-2.61-1.38-2.74-1.24-.12-2.01,1.26-2.28,2.27-.49,1.85-.2,3.95-.89,5.68-.77,1.91-4.1,3.08-2.12,5.73,1.71,2.28,3.28-.24,5-.64-.18-.35.07-.83.34-1.26Z"/>
  <path class="cls-1" d="M397.43,224.78c-2.06.11-.85,3.7-1.54,5.27-.02,2.9.76,5.17,2.32,7.21,1.25,1.64,2.8,2.7,4.54,1.19,1.52-1.32.94-3.02-.54-4.22-1.24-1.01-1.87-2.15-1.78-3.8.13-2.51-.12-5.79-3-5.64Z"/>
  <path class="cls-1" d="M281.34,213.24c-1.89-.79-2.98.81-3.97,2.15-1.04,1.41-1.1,3.07-1.16,5.37.12,4.01,1.64,8.06,5.2,11.2.77.68,1.75,1.28,2.67.62,1-.72.48-1.84-.02-2.67-2.41-3.97-2.13-8.16-1.15-12.43.39-1.73.18-3.51-1.56-4.23Z"/>
  <path class="cls-1" d="M302.49,239.28c5.27.02,11.24-5.48,11.5-10.51.09-1.72-.15-3.43-2.23-3.79-1.86-.32-2.46.97-2.93,2.56-1.08,3.69-3.52,6.17-7.11,7.61-1.15.46-2.72,1.1-2.38,2.71.35,1.67,2.06,1.22,3.15,1.42Z"/>
  <path class="cls-1" d="M274.09,214.29c.06-1.64,2.16-3.99-.07-4.76-2.17-.75-2.9,2.06-3.69,3.76-.54,1.17-.74,2.5-1.03,3.54.16,1.08.14,1.95.44,2.68.52,1.27.59,3.35,2.55,3.01,1.68-.3.99-2.14,1.17-3.36.23-1.62.57-3.24.63-4.87Z"/>
  <path class="cls-1" d="M296.27,221.59c-1.38-.71-2.8-1.36-4.1-2.19-1.74-1.12-3.52-4.05-5.47-1.16-1.5,2.22.06,4.83,2.04,6.52,1.71,1.46,3.74,2.49,5.2,2.27,3.03-.18,5.5-.46,5.99-2.55.55-2.35-2.21-2.15-3.67-2.9Z"/>
  <path class="cls-1" d="M441.02,231.16c.91.66,1.9.06,2.67-.62,3.56-3.14,5.08-7.18,5.2-11.2-.06-2.3-.12-3.96-1.16-5.37-.99-1.34-2.08-2.94-3.97-2.15-1.74.73-1.95,2.5-1.56,4.23.97,4.27,1.26,8.46-1.15,12.43-.5.82-1.02,1.94-.02,2.67Z"/>
  <path class="cls-1" d="M417.21,226.13c-.46-1.59-1.07-2.89-2.93-2.56-2.08.36-2.32,2.06-2.23,3.79.26,5.04,6.23,10.53,11.5,10.51,1.09-.2,2.8.25,3.15-1.42.34-1.61-1.24-2.25-2.38-2.71-3.6-1.44-6.04-3.92-7.11-7.61Z"/>
  <path class="cls-1" d="M452.8,221.11c1.96.35,2.03-1.74,2.55-3.01.3-.74.28-1.6.44-2.68-.29-1.04-.49-2.37-1.03-3.54-.79-1.7-1.51-4.5-3.68-3.76-2.24.77-.14,3.11-.07,4.76.06,1.63.4,3.25.63,4.87.17,1.22-.51,3.06,1.17,3.36Z"/>
  <path class="cls-1" d="M431.15,225.62c1.46.22,3.49-.81,5.2-2.27,1.98-1.69,3.54-4.3,2.04-6.52-1.95-2.89-3.72.05-5.47,1.16-1.3.83-2.72,1.49-4.1,2.19-1.46.74-4.22.55-3.67,2.9.49,2.08,2.96,2.37,5.99,2.55Z"/>
  <path class="cls-1" d="M271.58,455.12c-.3-.22-1.19-.22-1.34,0-1.49,2.19.16,4.35.17,6.55,0,.32,0,.69.16.96.65,1.14.34,3.35,2.45,2.94,1.78-.35,1.61-2.2,1.81-3.61-.21-2.71-1-5.14-3.25-6.82Z"/>
  <path class="cls-1" d="M453.66,461.94c-.05-2.33,2.8-5.94-.52-6.71-2.54-.59-3.04,3.57-4.02,5.86.05,1.9.07,4.17,2.17,4.44,2.1.27,2.4-2.23,2.37-3.6Z"/>
  <path class="cls-1" d="M275.45,246.66s-.06.01-.1.03c0,0,.1.1.1.1,0-.05,0-.08,0-.12Z"/>
  <path class="cls-1" d="M273.5,244.67s-.07,0-.11,0c.01.04.03.08.04.12.02,0,.04,0,.06,0,0-.04,0-.08.01-.12Z"/>
  <path class="cls-1" d="M275.45,246.66c1-.33,1.24.86,1.97,1.08,1-2,2.01-3.99,3.01-5.99-1.9-.76-3.83-1.45-5.69-2.3-1.04-.48-1.88-.36-2.62.37-.86.84-.48,1.71.07,2.59.46.74,1.48,1.19,1.32,2.27,1.48-.14,2.13.52,1.95,1.99Z"/>
</svg>